<svg xmlns="http://www.w3.org/2000/svg" width="20" height="20" viewBox="0 0 20 20" fill="none">
  <g clip-path="url(#clip0_2450_1513)">
    <path fill-rule="evenodd" clip-rule="evenodd" d="M7.79708 0.0990694C6.35253 0.409179 4.98638 1.47251 4.34643 2.78483C4.02543 3.44303 4.01443 3.4562 3.71568 3.5377C0.305728 4.46798 -1.13857 8.62278 0.967378 11.4439L1.27378 11.8544L1.17528 12.1773C0.240428 15.2408 2.80523 18.4176 6.22793 18.4357L7.28748 18.4413L7.59648 18.7223C10.1642 21.0576 14.6933 20.0423 15.8486 16.8723C15.959 16.5695 15.9917 16.5382 16.2777 16.462C19.6861 15.5539 21.1354 11.3996 19.0354 8.55776L18.7464 8.16675L18.8419 7.8334C19.7894 4.52457 16.4699 0.942225 13.0597 1.59352C12.8071 1.64172 12.758 1.62954 12.6205 1.48435C11.5278 0.330591 9.47068 -0.260225 7.79708 0.0990694ZM10.1638 1.59007C10.7735 1.80571 11.3138 2.14645 11.1889 2.23658C11.1341 2.2761 10.1737 2.82844 9.05458 3.46395C7.52358 4.33335 6.99558 4.66571 6.92183 4.80641C6.84073 4.96112 6.82378 5.47769 6.82378 7.79675C6.82378 9.33856 6.80758 10.6001 6.78773 10.6001C6.76783 10.6001 6.40298 10.4025 5.97688 10.1611L5.20218 9.72228V7.19779C5.20218 4.42985 5.22243 4.23281 5.58428 3.48052C6.37688 1.83279 8.44098 0.980705 10.1638 1.59007ZM14.6115 3.03115C16.3149 3.38733 17.5686 4.9586 17.5655 6.73337C17.5646 7.2489 17.6003 7.26123 15.3755 5.97852C13.8741 5.11286 13.2258 4.7734 13.0741 4.7734C12.9222 4.7734 12.1654 5.17044 10.3802 6.1867C9.01473 6.96405 7.88398 7.60006 7.86743 7.60006C7.85088 7.60006 7.83733 7.18674 7.83733 6.68162V5.76313L9.93908 4.56492C12.9135 2.86923 13.2728 2.75128 14.6115 3.03115ZM3.90033 10.0435C3.94718 10.1242 5.07698 10.8083 6.48178 11.6067L8.97998 13.0264L8.35798 13.3872C8.01588 13.5856 7.64153 13.7932 7.52608 13.8485L7.31618 13.949L5.10128 12.6912C3.46288 11.7608 2.79468 11.3445 2.53403 11.0917C0.751378 9.36313 1.16528 6.36593 3.34478 5.22076L3.74948 5.00808L3.78328 7.45408C3.80763 9.21676 3.84033 9.94013 3.90033 10.0435ZM14.8734 7.30006C16.7848 8.38233 17.0427 8.54913 17.5022 9.00004C18.9859 10.4562 18.9848 12.7519 17.4996 14.1947C17.1781 14.507 16.4173 15.0001 16.2569 15.0001C16.2342 15.0001 16.2157 13.8934 16.2157 12.5408C16.2157 10.2948 16.2054 10.0697 16.0974 9.94566C16.0324 9.87097 14.915 9.2029 13.6143 8.46112C12.3137 7.71929 11.1996 7.08191 11.1386 7.04466C11.0236 6.97456 12.5008 6.05464 12.6775 6.08631C12.7196 6.09386 13.7078 6.64008 14.8734 7.30006ZM11.1124 8.18337L12.1575 8.76674L12.1583 10.0001L12.159 11.2334L11.0883 11.8406L10.0176 12.4478L8.92833 11.8406L7.83903 11.2334L7.85503 10.0028L7.87108 8.77217L8.88463 8.1921C10.1175 7.48644 9.86553 7.48743 11.1124 8.18337ZM14.0459 9.86589L14.8036 10.2984L14.7832 13.0325L14.7629 15.7667L14.5769 16.2252C13.7371 18.2958 11.4144 19.2118 9.42518 18.2569C8.56088 17.8421 8.43298 17.9917 10.803 16.645C11.9518 15.9922 12.9479 15.397 13.0166 15.3222C13.1333 15.195 13.1426 14.9977 13.1603 12.2883C13.1708 10.6944 13.2038 9.39998 13.2338 9.41187C13.2637 9.42371 13.6292 9.628 14.0459 9.86589ZM12.1616 13.3277V14.2552L10.1177 15.4188C7.65598 16.8204 7.61428 16.8416 7.07933 16.966C4.98973 17.4521 2.95873 16.1613 2.53078 14.0751C2.42868 13.5774 2.42263 12.987 2.51863 12.8923C2.53788 12.8732 3.49163 13.3916 4.63798 14.044C6.28863 14.9835 6.77158 15.2296 6.95888 15.2264C7.13993 15.2233 7.77393 14.8917 9.66163 13.8127C11.0181 13.0372 12.1355 12.4022 12.1447 12.4015C12.154 12.4007 12.1616 12.8174 12.1616 13.3277Z" fill="#00C28C"/>
  </g>
  <defs>
    <clipPath id="clip0_2450_1513">
      <rect width="20" height="20" fill="white"/>
    </clipPath>
  </defs>
</svg>