<svg xmlns="http://www.w3.org/2000/svg" width="20" height="20" viewBox="0 0 20 20" fill="none">
  <path d="M6.08585 8.21492C6.08585 7.86974 6.36568 7.58992 6.71085 7.58992H13.3775C13.7227 7.58992 14.0025 7.86974 14.0025 8.21492C14.0025 8.5601 13.7227 8.83992 13.3775 8.83992H6.71085C6.36568 8.83992 6.08585 8.5601 6.08585 8.21492Z" fill="white"/>
  <path d="M6.08585 11.5483C6.08585 11.2031 6.36568 10.9233 6.71085 10.9233H13.3775C13.7227 10.9233 14.0025 11.2031 14.0025 11.5483C14.0025 11.8934 13.7227 12.1733 13.3775 12.1733H6.71085C6.36568 12.1733 6.08585 11.8934 6.08585 11.5483Z" fill="white"/>
  <path fill-rule="evenodd" clip-rule="evenodd" d="M3.68515 3.66558C7.1836 0.167137 12.8557 0.167137 16.3542 3.66558C19.8526 7.16403 19.8526 12.8361 16.3542 16.3346C15.3261 17.3626 13.7467 18.3025 11.9867 18.7236C10.218 19.1467 8.22061 19.0545 6.41799 17.9406C6.32445 17.8827 6.26457 17.8458 6.21934 17.8194C6.18863 17.8016 6.17498 17.7947 6.17219 17.7933C6.14182 17.7815 6.13159 17.7802 6.13069 17.7801C6.12926 17.7799 6.11789 17.7781 6.08316 17.7807C6.08923 17.7803 6.08306 17.78 6.04618 17.7883C6.007 17.7972 5.95545 17.8105 5.86845 17.8331L5.84637 17.8388C5.34104 17.9698 4.9311 18.076 4.60107 18.1383C4.26916 18.2008 3.94705 18.2342 3.63719 18.1712C2.73614 17.9878 2.03195 17.2836 1.84857 16.3825C1.78551 16.0727 1.81889 15.7506 1.88148 15.4187C1.94372 15.0886 2.04997 14.6787 2.18095 14.1734L2.18668 14.1513C2.20924 14.0643 2.22252 14.0127 2.23137 13.9736C2.23969 13.9368 2.23941 13.9306 2.23895 13.9366C2.24159 13.9023 2.2398 13.8908 2.23953 13.8891C2.23927 13.8873 2.23765 13.8765 2.22621 13.8472C2.22479 13.8444 2.21798 13.8309 2.20021 13.8006C2.17394 13.7557 2.13713 13.6964 2.07938 13.6035C0.963898 11.8085 0.847796 9.83293 1.26247 8.06852C1.67498 6.3133 2.61876 4.73198 3.68515 3.66558ZM15.4703 4.54947C12.46 1.53918 7.57933 1.53918 4.56904 4.54947C3.66177 5.45673 2.83692 6.83289 2.47931 8.35451C2.12386 9.86694 2.23615 11.4876 3.14107 12.9437C3.14927 12.9569 3.1575 12.9701 3.16572 12.9833C3.2519 13.1215 3.3372 13.2584 3.38607 13.3811C3.4735 13.6006 3.50337 13.7966 3.48529 14.0322C3.47521 14.1636 3.43968 14.2999 3.40563 14.4306C3.40263 14.4421 3.39965 14.4535 3.3967 14.4649C3.25863 14.9976 3.16333 15.3666 3.10984 15.6503C3.0558 15.9369 3.05968 16.0656 3.07346 16.1333C3.15681 16.5428 3.4769 16.8629 3.88647 16.9463C3.95417 16.96 4.08288 16.9639 4.36944 16.9099C4.6531 16.8564 5.02214 16.7611 5.55482 16.623C5.56624 16.6201 5.5777 16.6171 5.5892 16.6141C5.71978 16.5801 5.85593 16.5446 5.98686 16.5345C6.22215 16.5163 6.41672 16.5457 6.63613 16.6326C6.75855 16.681 6.89597 16.7662 7.03514 16.8525C7.04845 16.8607 7.06178 16.869 7.07511 16.8772C8.53066 17.7767 10.1696 17.873 11.6959 17.5079C13.231 17.1406 14.6052 16.3157 15.4703 15.4507C18.4806 12.4404 18.4806 7.55976 15.4703 4.54947Z" fill="white"/>
  <path d="M6.08585 8.21492C6.08585 7.86974 6.36568 7.58992 6.71085 7.58992H13.3775C13.7227 7.58992 14.0025 7.86974 14.0025 8.21492C14.0025 8.5601 13.7227 8.83992 13.3775 8.83992H6.71085C6.36568 8.83992 6.08585 8.5601 6.08585 8.21492Z" stroke="white"/>
  <path d="M6.08585 11.5483C6.08585 11.2031 6.36568 10.9233 6.71085 10.9233H13.3775C13.7227 10.9233 14.0025 11.2031 14.0025 11.5483C14.0025 11.8934 13.7227 12.1733 13.3775 12.1733H6.71085C6.36568 12.1733 6.08585 11.8934 6.08585 11.5483Z" stroke="white"/>
  <path fill-rule="evenodd" clip-rule="evenodd" d="M3.68515 3.66558C7.1836 0.167137 12.8557 0.167137 16.3542 3.66558C19.8526 7.16403 19.8526 12.8361 16.3542 16.3346C15.3261 17.3626 13.7467 18.3025 11.9867 18.7236C10.218 19.1467 8.22061 19.0545 6.41799 17.9406C6.32445 17.8827 6.26457 17.8458 6.21934 17.8194C6.18863 17.8016 6.17498 17.7947 6.17219 17.7933C6.14182 17.7815 6.13159 17.7802 6.13069 17.7801C6.12926 17.7799 6.11789 17.7781 6.08316 17.7807C6.08923 17.7803 6.08306 17.78 6.04618 17.7883C6.007 17.7972 5.95545 17.8105 5.86845 17.8331L5.84637 17.8388C5.34104 17.9698 4.9311 18.076 4.60107 18.1383C4.26916 18.2008 3.94705 18.2342 3.63719 18.1712C2.73614 17.9878 2.03195 17.2836 1.84857 16.3825C1.78551 16.0727 1.81889 15.7506 1.88148 15.4187C1.94372 15.0886 2.04997 14.6787 2.18095 14.1734L2.18668 14.1513C2.20924 14.0643 2.22252 14.0127 2.23137 13.9736C2.23969 13.9368 2.23941 13.9306 2.23895 13.9366C2.24159 13.9023 2.2398 13.8908 2.23953 13.8891C2.23927 13.8873 2.23765 13.8765 2.22621 13.8472C2.22479 13.8444 2.21798 13.8309 2.20021 13.8006C2.17394 13.7557 2.13713 13.6964 2.07938 13.6035C0.963898 11.8085 0.847796 9.83293 1.26247 8.06852C1.67498 6.3133 2.61876 4.73198 3.68515 3.66558ZM15.4703 4.54947C12.46 1.53918 7.57933 1.53918 4.56904 4.54947C3.66177 5.45673 2.83692 6.83289 2.47931 8.35451C2.12386 9.86694 2.23615 11.4876 3.14107 12.9437C3.14927 12.9569 3.1575 12.9701 3.16572 12.9833C3.2519 13.1215 3.3372 13.2584 3.38607 13.3811C3.4735 13.6006 3.50337 13.7966 3.48529 14.0322C3.47521 14.1636 3.43968 14.2999 3.40563 14.4306C3.40263 14.4421 3.39965 14.4535 3.3967 14.4649C3.25863 14.9976 3.16333 15.3666 3.10984 15.6503C3.0558 15.9369 3.05968 16.0656 3.07346 16.1333C3.15681 16.5428 3.4769 16.8629 3.88647 16.9463C3.95417 16.96 4.08288 16.9639 4.36944 16.9099C4.6531 16.8564 5.02214 16.7611 5.55482 16.623C5.56624 16.6201 5.5777 16.6171 5.5892 16.6141C5.71978 16.5801 5.85593 16.5446 5.98686 16.5345C6.22215 16.5163 6.41672 16.5457 6.63613 16.6326C6.75855 16.681 6.89597 16.7662 7.03514 16.8525C7.04845 16.8607 7.06178 16.869 7.07511 16.8772C8.53066 17.7767 10.1696 17.873 11.6959 17.5079C13.231 17.1406 14.6052 16.3157 15.4703 15.4507C18.4806 12.4404 18.4806 7.55976 15.4703 4.54947Z" stroke="white"/>
</svg>