<svg xmlns="http://www.w3.org/2000/svg" width="25" height="24" viewBox="0 0 25 24" fill="none">
  <path d="M20.4923 5.53033C20.7852 5.23744 20.7852 4.76256 20.4923 4.46967C20.1994 4.17678 19.7245 4.17678 19.4316 4.46967L12.9619 10.9394L6.49224 4.46967C6.19935 4.17678 5.72448 4.17678 5.43158 4.46967C5.13869 4.76257 5.13869 5.23744 5.43158 5.53033L11.9013 12L5.43161 18.4697C5.13872 18.7626 5.13872 19.2374 5.43161 19.5303C5.7245 19.8232 6.19938 19.8232 6.49227 19.5303L12.9619 13.0607L19.4316 19.5303C19.7245 19.8232 20.1994 19.8232 20.4922 19.5303C20.7851 19.2374 20.7851 18.7626 20.4922 18.4697L14.0226 12L20.4923 5.53033Z" fill="#00C28C"/>
</svg>