<svg xmlns="http://www.w3.org/2000/svg" width="25" height="24" viewBox="0 0 25 24" fill="none">
  <path d="M12.0624 19.0208L11.7895 18.3223L12.0624 19.0208ZM8.00603 19.7998L7.63103 20.4493L7.63103 20.4493L8.00603 19.7998ZM6.65241 15.8974L5.91096 16.0103L6.65241 15.8974ZM7.14271 13.2951L7.79223 13.6701L7.14271 13.2951ZM6.55856 14.5324L5.82153 14.3935H5.82153L6.55856 14.5324ZM14.0709 17.2951L14.7204 17.6701L14.0709 17.2951ZM13.2915 18.4196L13.7803 18.9885H13.7803L13.2915 18.4196ZM10.9412 6.716L10.2916 6.341L10.9412 6.716ZM17.2198 10.341L13.4214 16.9201L14.7204 17.6701L18.5189 11.091L17.2198 10.341ZM7.79223 13.6701L11.5907 7.091L10.2916 6.341L6.49319 12.9201L7.79223 13.6701ZM11.7895 18.3223C10.693 18.7506 9.94627 19.0404 9.36979 19.1751C8.81292 19.3052 8.56023 19.2537 8.38103 19.1503L7.63103 20.4493C8.2843 20.8265 8.98517 20.8054 9.71106 20.6358C10.4173 20.4708 11.2825 20.1307 12.3354 19.7194L11.7895 18.3223ZM5.91096 16.0103C6.08115 17.1277 6.2193 18.047 6.42954 18.7412C6.64561 19.4546 6.97776 20.0721 7.63103 20.4493L8.38103 19.1503C8.20184 19.0468 8.0309 18.8537 7.86514 18.3064C7.69354 17.7398 7.57111 16.9482 7.39386 15.7844L5.91096 16.0103ZM6.49319 12.9201C6.17137 13.4775 5.91371 13.9043 5.82153 14.3935L7.29559 14.6712C7.32955 14.491 7.41927 14.3161 7.79223 13.6701L6.49319 12.9201ZM7.39386 15.7844C7.28155 15.047 7.26164 14.8514 7.29559 14.6712L5.82153 14.3935C5.72935 14.8827 5.81405 15.374 5.91096 16.0103L7.39386 15.7844ZM13.4214 16.9201C13.0484 17.5661 12.9418 17.7312 12.8027 17.8508L13.7803 18.9885C14.1579 18.664 14.3986 18.2275 14.7204 17.6701L13.4214 16.9201ZM12.3354 19.7194C12.9349 19.4852 13.4027 19.3129 13.7803 18.9885L12.8027 17.8508C12.6636 17.9703 12.4843 18.0508 11.7895 18.3223L12.3354 19.7194ZM16.0303 5.90142C16.8651 6.38343 17.4251 6.70859 17.811 7.00635C18.1796 7.29081 18.297 7.48241 18.3447 7.66043L19.7936 7.2722C19.6269 6.65002 19.2289 6.20582 18.7274 5.81883C18.2431 5.44513 17.5784 5.06319 16.7803 4.60238L16.0303 5.90142ZM18.5189 11.091C18.9797 10.2929 19.3644 9.62972 19.5969 9.06397C19.8377 8.47808 19.9603 7.89439 19.7936 7.2722L18.3447 7.66043C18.3924 7.83845 18.3865 8.0631 18.2095 8.49375C18.0242 8.94455 17.7018 9.50615 17.2198 10.341L18.5189 11.091ZM16.7803 4.60238C15.9821 4.14158 15.319 3.75687 14.7532 3.52435C14.1673 3.28355 13.5836 3.16094 12.9614 3.32766L13.3497 4.77655C13.5277 4.72885 13.7523 4.73474 14.183 4.91174C14.6338 5.09702 15.1954 5.41942 16.0303 5.90142L16.7803 4.60238ZM11.5907 7.091C12.0727 6.25615 12.3978 5.69614 12.6956 5.31029C12.9801 4.94167 13.1717 4.82425 13.3497 4.77655L12.9614 3.32766C12.3393 3.49437 11.8951 3.8924 11.5081 4.39388C11.1344 4.87813 10.7524 5.54287 10.2916 6.341L11.5907 7.091ZM18.2444 10.0665L11.3162 6.06649L10.5662 7.36552L17.4944 11.3655L18.2444 10.0665Z" fill="#00C28C"/>
</svg>