<svg xmlns="http://www.w3.org/2000/svg" width="67" height="67" viewBox="0 0 67 67" fill="none">
  <g clip-path="url(#clip0_701_10064)">
    <path d="M33.428 16.4102C27.1065 16.4102 21.9819 21.5348 21.9819 27.8563C21.9819 34.1779 27.1065 39.3025 33.428 39.3025C39.7495 39.3025 44.8741 34.1779 44.8741 27.8563C44.8741 21.5348 39.7495 16.4102 33.428 16.4102ZM28.1603 27.8563C28.1603 24.9471 30.5188 22.5887 33.428 22.5887C36.3373 22.5887 38.6957 24.9471 38.6957 27.8563C38.6957 30.7656 36.3373 33.124 33.428 33.124C30.5188 33.124 28.1603 30.7656 28.1603 27.8563ZM33.428 -0.303589C19.2031 -0.303589 8.05371 12.0351 8.05371 26.7663C8.05371 31.6127 10.4411 37.1884 13.3106 42.2616C16.2484 47.4553 19.9873 52.623 23.2508 56.7846C23.2508 56.7846 23.2508 56.7846 23.2508 56.7846L23.3592 56.9228L23.4055 56.9819C24.9536 58.9563 26.3473 60.7338 27.7199 61.9807C29.2682 63.3871 31.0731 64.3884 33.428 64.3884C35.7829 64.3884 37.5878 63.3871 39.1361 61.9807C40.5088 60.7338 41.9025 58.9562 43.4506 56.9817L43.4969 56.9228L43.4969 56.9227L43.6052 56.7846C46.8687 52.623 50.6076 47.4553 53.5454 42.2616C56.415 37.1884 58.8023 31.6127 58.8023 26.7663C58.8023 12.0351 47.6529 -0.303589 33.428 -0.303589ZM14.2322 26.7663C14.2322 15.0132 23.0339 5.87486 33.428 5.87486C43.8221 5.87486 52.6239 15.0132 52.6239 26.7663C52.6239 29.9065 50.9594 34.2841 48.1676 39.2198C45.4445 44.0341 41.914 48.9289 38.7434 52.972C36.9964 55.1997 35.9209 56.5543 34.9819 57.4073C34.1766 58.1388 33.7868 58.21 33.428 58.21C33.0692 58.21 32.6794 58.1388 31.8742 57.4073C30.9351 56.5543 29.8596 55.1997 28.1127 52.972C24.942 48.9289 21.4115 44.0341 18.6884 39.2198C15.8967 34.2841 14.2322 29.9065 14.2322 26.7663Z" fill="#00C28C" stroke="#050A08" stroke-width="2"/>
  </g>
  <defs>
    <clipPath id="clip0_701_10064">
      <rect width="66.8552" height="66.8552" fill="white"/>
    </clipPath>
  </defs>
</svg>