<svg xmlns="http://www.w3.org/2000/svg" width="38" height="29" viewBox="0 0 38 29" fill="none">
  <g clip-path="url(#clip0_1252_9168)">
    <path d="M6.90759 28.8558V26.9365C6.90759 26.2005 6.4513 25.7208 5.66918 25.7208C5.2782 25.7208 4.85455 25.8487 4.56124 26.2646C4.33324 25.9127 4.00742 25.7208 3.51862 25.7208C3.19265 25.7208 2.86698 25.8167 2.60617 26.1686V25.7848H1.92188V28.8558H2.60617V27.1603C2.60617 26.6166 2.89948 26.3605 3.35578 26.3605C3.81178 26.3605 4.04008 26.6485 4.04008 27.1603V28.8558H4.72438V27.1603C4.72438 26.6166 5.05005 26.3605 5.47369 26.3605C5.92998 26.3605 6.15798 26.6485 6.15798 27.1603V28.8558H6.90759ZM17.0416 25.7848H15.9338V24.8571H15.2495V25.7848H14.6304V26.3924H15.2493V27.8002C15.2493 28.5041 15.5426 28.9198 16.3248 28.9198C16.6181 28.9198 16.9438 28.8239 17.172 28.696L16.9764 28.1201C16.7809 28.248 16.5529 28.2801 16.3899 28.2801C16.0641 28.2801 15.9338 28.0881 15.9338 27.7681V26.3924H17.0416V25.7848ZM22.8419 25.7206C22.4509 25.7206 22.1903 25.9127 22.0273 26.1686V25.7848H21.343V28.8558H22.0273V27.1284C22.0273 26.6166 22.2553 26.3286 22.6789 26.3286C22.8093 26.3286 22.9722 26.3607 23.1026 26.3926L23.2981 25.7528C23.1677 25.7208 22.9722 25.7208 22.8419 25.7208V25.7206ZM14.0764 26.0407C13.7504 25.8167 13.2943 25.7208 12.8055 25.7208C12.0235 25.7208 11.5022 26.1046 11.5022 26.7125C11.5022 27.2244 11.8932 27.5122 12.5775 27.6083L12.9033 27.6403C13.2618 27.7042 13.4573 27.8002 13.4573 27.9602C13.4573 28.184 13.1966 28.344 12.7403 28.344C12.2841 28.344 11.9257 28.184 11.6975 28.0242L11.3717 28.536C11.7302 28.7919 12.219 28.9198 12.7076 28.9198C13.6201 28.9198 14.1415 28.5041 14.1415 27.9281C14.1415 27.3843 13.7179 27.0963 13.0661 27.0004L12.7403 26.9684C12.447 26.9363 12.219 26.8725 12.219 26.6806C12.219 26.4566 12.447 26.3286 12.8055 26.3286C13.1966 26.3286 13.5876 26.4885 13.7831 26.5845L14.0764 26.0407ZM32.2592 25.7208C31.8681 25.7208 31.6074 25.9127 31.4445 26.1686V25.7848H30.7602V28.8558H31.4445V27.1284C31.4445 26.6166 31.6726 26.3286 32.0961 26.3286C32.2266 26.3286 32.3896 26.3607 32.5199 26.3926L32.7154 25.7528C32.5851 25.7208 32.3896 25.7208 32.2592 25.7208ZM23.5262 27.3203C23.5262 28.248 24.1779 28.9198 25.1881 28.9198C25.6443 28.9198 25.9701 28.8239 26.2959 28.568L25.9701 28.0242C25.7094 28.2161 25.4488 28.312 25.1555 28.312C24.6015 28.312 24.2105 27.9281 24.2105 27.3203C24.2105 26.7445 24.6015 26.3605 25.1555 26.3286C25.4488 26.3286 25.7094 26.4245 25.9701 26.6166L26.2959 26.0727C25.9701 25.8167 25.6443 25.7208 25.1881 25.7208C24.1779 25.7208 23.5262 26.3926 23.5262 27.3203ZM29.8479 27.3203V25.7848H29.1636V26.1686C28.9354 25.8808 28.6096 25.7208 28.186 25.7208C27.3062 25.7208 26.6219 26.3926 26.6219 27.3203C26.6219 28.248 27.3062 28.9198 28.186 28.9198C28.6421 28.9198 28.9681 28.76 29.1636 28.472V28.8558H29.8479V27.3203ZM27.3387 27.3203C27.3387 26.7764 27.6972 26.3286 28.2836 26.3286C28.8376 26.3286 29.2287 26.7445 29.2287 27.3203C29.2287 27.8642 28.8376 28.312 28.2836 28.312C27.6972 28.2799 27.3387 27.8642 27.3387 27.3203ZM19.1598 25.7208C18.2473 25.7208 17.5955 26.3605 17.5955 27.3203C17.5955 28.2801 18.2472 28.9198 19.1923 28.9198C19.6484 28.9198 20.1047 28.7919 20.4632 28.5041L20.1372 28.0242C19.8766 28.2161 19.5508 28.344 19.2249 28.344C18.8013 28.344 18.3777 28.1521 18.2798 27.6081H20.5935V27.3524C20.6262 26.3605 20.0397 25.7208 19.1598 25.7208ZM19.1598 26.2966C19.5833 26.2966 19.8767 26.5526 19.9417 27.0325H18.3125C18.3777 26.6166 18.671 26.2966 19.1598 26.2966ZM36.1369 27.3203V24.5691H35.4526V26.1686C35.2244 25.8808 34.8986 25.7208 34.475 25.7208C33.5952 25.7208 32.9109 26.3926 32.9109 27.3203C32.9109 28.248 33.5952 28.9198 34.475 28.9198C34.9313 28.9198 35.2571 28.76 35.4526 28.472V28.8558H36.1369V27.3203ZM33.6278 27.3203C33.6278 26.7764 33.9862 26.3286 34.5728 26.3286C35.1268 26.3286 35.5177 26.7445 35.5177 27.3203C35.5177 27.8642 35.1268 28.312 34.5728 28.312C33.9862 28.2799 33.6278 27.8642 33.6278 27.3203ZM10.7526 27.3203V25.7848H10.0683V26.1686C9.84013 25.8808 9.51431 25.7208 9.09066 25.7208C8.21088 25.7208 7.52658 26.3926 7.52658 27.3203C7.52658 28.248 8.21088 28.9198 9.09066 28.9198C9.54696 28.9198 9.87278 28.76 10.0683 28.472V28.8558H10.7526V27.3203ZM8.21088 27.3203C8.21088 26.7764 8.56935 26.3286 9.15583 26.3286C9.7098 26.3286 10.1009 26.7445 10.1009 27.3203C10.1009 27.8642 9.7098 28.312 9.15583 28.312C8.56935 28.2799 8.21088 27.8642 8.21088 27.3203Z" fill="white"/>
    <path d="M13.8496 2.46313H24.1141V20.5701H13.8496V2.46313Z" fill="#FF5F00"/>
    <path d="M14.5007 11.5168C14.5007 7.83787 16.2603 4.57471 18.9648 2.46325C16.9772 0.927709 14.4682 0 11.731 0C5.24623 0 0 5.15049 0 11.5168C0 17.8829 5.24623 23.0336 11.7309 23.0336C14.4681 23.0336 16.9771 22.1059 18.9648 20.5702C16.2603 18.4908 14.5007 15.1957 14.5007 11.5168Z" fill="#EB001B"/>
    <path d="M37.9629 11.5168C37.9629 17.8829 32.7166 23.0336 26.232 23.0336C23.4948 23.0336 20.9858 22.1059 18.998 20.5702C21.7352 18.4589 23.4623 15.1957 23.4623 11.5168C23.4623 7.83787 21.7026 4.57471 18.998 2.46325C20.9856 0.927709 23.4948 0 26.232 0C32.7166 0 37.9629 5.18255 37.9629 11.5168Z" fill="#F79E1B"/>
  </g>
  <defs>
    <clipPath id="clip0_1252_9168">
      <rect width="38" height="29" fill="white"/>
    </clipPath>
  </defs>
</svg>