<svg xmlns="http://www.w3.org/2000/svg" width="24" height="25" viewBox="0 0 24 25" fill="none">
  <path d="M15.584 11.3148C15.8439 10.9923 15.7931 10.5201 15.4705 10.2602C15.148 10.0003 14.6758 10.0511 14.416 10.3737L12.3944 12.8825C11.9794 13.3976 11.7175 13.7197 11.4995 13.9233C11.3971 14.019 11.3316 14.0615 11.294 14.0803C11.2661 14.0943 11.2561 14.0943 11.2507 14.0942H11.2492C11.2439 14.0943 11.2339 14.0943 11.2059 14.0803C11.1683 14.0615 11.1028 14.019 11.0004 13.9233C10.7824 13.7197 10.5205 13.3976 10.1055 12.8825L9.58396 12.2352C9.32407 11.9127 8.85192 11.8619 8.52938 12.1218C8.20685 12.3817 8.15606 12.8538 8.41595 13.1764L8.97003 13.864C9.34254 14.3264 9.67119 14.7343 9.9766 15.0196C10.3045 15.3258 10.7122 15.5942 11.25 15.5942C11.7877 15.5942 12.1954 15.3258 12.5233 15.0196C12.8287 14.7343 13.1574 14.3264 13.5299 13.864L15.584 11.3148Z" fill="white"/>
  <path fill-rule="evenodd" clip-rule="evenodd" d="M9.56284 2.09424C8.02104 2.09424 6.77117 3.34411 6.77117 4.8859C6.77117 5.59927 6.19287 6.17757 5.4795 6.17757H5.17064C3.59458 6.17757 2.19067 7.39696 2.27617 9.09072C2.3777 11.1017 2.82435 14.2361 4.4535 17.205C4.9098 18.0366 5.51919 18.8534 6.17795 19.6145L6.22755 19.6718C7.17522 20.7668 7.96537 21.6798 8.81485 22.3022C9.72853 22.9715 10.7037 23.305 12 23.305C13.2963 23.305 14.2715 22.9715 15.1852 22.3022C16.0346 21.6798 16.8248 20.7668 17.7725 19.6718L17.8221 19.6145C18.4808 18.8534 19.0902 18.0366 19.5465 17.205C21.2298 14.1373 21.6496 10.6709 21.7324 8.50985C21.7969 6.82423 20.403 5.59424 18.8182 5.59424H18.2288C17.6766 5.59424 17.2288 5.14652 17.2288 4.59424C17.2288 3.21353 16.1096 2.09424 14.7288 2.09424H9.56284ZM8.27117 4.8859C8.27117 4.17254 8.84947 3.59424 9.56284 3.59424H14.7288C15.2811 3.59424 15.7288 4.04195 15.7288 4.59424C15.7288 5.97495 16.8481 7.09424 18.2288 7.09424H18.8182C19.6558 7.09424 20.2616 7.71734 20.2335 8.45242C20.1544 10.5172 19.7518 13.7129 18.2315 16.4834C17.8425 17.1922 17.304 17.9211 16.6879 18.6329C15.6778 19.7999 14.9957 20.5815 14.2987 21.0921C13.6512 21.5665 12.9888 21.805 12 21.805C11.0112 21.805 10.3489 21.5665 9.70131 21.0921C9.00433 20.5815 8.32224 19.7999 7.31212 18.6329C6.69604 17.9211 6.15747 17.1922 5.76853 16.4834C4.29005 13.789 3.86972 10.9058 3.77427 9.01509C3.73795 8.29573 4.3305 7.67757 5.17064 7.67757H5.4795C7.0213 7.67757 8.27117 6.4277 8.27117 4.8859Z" fill="white"/>
  <path d="M15.584 11.3148C15.8439 10.9923 15.7931 10.5201 15.4705 10.2602C15.148 10.0003 14.6758 10.0511 14.416 10.3737L12.3944 12.8825C11.9794 13.3976 11.7175 13.7197 11.4995 13.9233C11.3971 14.019 11.3316 14.0615 11.294 14.0803C11.2661 14.0943 11.2561 14.0943 11.2507 14.0942H11.2492C11.2439 14.0943 11.2339 14.0943 11.2059 14.0803C11.1683 14.0615 11.1028 14.019 11.0004 13.9233C10.7824 13.7197 10.5205 13.3976 10.1055 12.8825L9.58396 12.2352C9.32407 11.9127 8.85192 11.8619 8.52938 12.1218C8.20685 12.3817 8.15606 12.8538 8.41595 13.1764L8.97003 13.864C9.34254 14.3264 9.67119 14.7343 9.9766 15.0196C10.3045 15.3258 10.7122 15.5942 11.25 15.5942C11.7877 15.5942 12.1954 15.3258 12.5233 15.0196C12.8287 14.7343 13.1574 14.3264 13.5299 13.864L15.584 11.3148Z" stroke="white"/>
  <path fill-rule="evenodd" clip-rule="evenodd" d="M9.56284 2.09424C8.02104 2.09424 6.77117 3.34411 6.77117 4.8859C6.77117 5.59927 6.19287 6.17757 5.4795 6.17757H5.17064C3.59458 6.17757 2.19067 7.39696 2.27617 9.09072C2.3777 11.1017 2.82435 14.2361 4.4535 17.205C4.9098 18.0366 5.51919 18.8534 6.17795 19.6145L6.22755 19.6718C7.17522 20.7668 7.96537 21.6798 8.81485 22.3022C9.72853 22.9715 10.7037 23.305 12 23.305C13.2963 23.305 14.2715 22.9715 15.1852 22.3022C16.0346 21.6798 16.8248 20.7668 17.7725 19.6718L17.8221 19.6145C18.4808 18.8534 19.0902 18.0366 19.5465 17.205C21.2298 14.1373 21.6496 10.6709 21.7324 8.50985C21.7969 6.82423 20.403 5.59424 18.8182 5.59424H18.2288C17.6766 5.59424 17.2288 5.14652 17.2288 4.59424C17.2288 3.21353 16.1096 2.09424 14.7288 2.09424H9.56284ZM8.27117 4.8859C8.27117 4.17254 8.84947 3.59424 9.56284 3.59424H14.7288C15.2811 3.59424 15.7288 4.04195 15.7288 4.59424C15.7288 5.97495 16.8481 7.09424 18.2288 7.09424H18.8182C19.6558 7.09424 20.2616 7.71734 20.2335 8.45242C20.1544 10.5172 19.7518 13.7129 18.2315 16.4834C17.8425 17.1922 17.304 17.9211 16.6879 18.6329C15.6778 19.7999 14.9957 20.5815 14.2987 21.0921C13.6512 21.5665 12.9888 21.805 12 21.805C11.0112 21.805 10.3489 21.5665 9.70131 21.0921C9.00433 20.5815 8.32224 19.7999 7.31212 18.6329C6.69604 17.9211 6.15747 17.1922 5.76853 16.4834C4.29005 13.789 3.86972 10.9058 3.77427 9.01509C3.73795 8.29573 4.3305 7.67757 5.17064 7.67757H5.4795C7.0213 7.67757 8.27117 6.4277 8.27117 4.8859Z" stroke="white"/>
</svg>