<svg width="18" height="18" viewBox="0 0 18 18" fill="none" xmlns="http://www.w3.org/2000/svg">
<g id="Activity 2">
<g id="Vector">
<path d="M13.5833 2.33333C13.5833 3.48393 14.5161 4.41667 15.6667 4.41667C16.8173 4.41667 17.75 3.48393 17.75 2.33333C17.75 1.18274 16.8173 0.25 15.6667 0.25C14.5161 0.25 13.5833 1.18274 13.5833 2.33333ZM14.8333 2.33333C14.8333 2.79357 15.2064 3.16667 15.6667 3.16667C16.1269 3.16667 16.5 2.79357 16.5 2.33333C16.5 1.8731 16.1269 1.5 15.6667 1.5C15.2064 1.5 14.8333 1.8731 14.8333 2.33333ZM12.125 1.5C12.125 1.84518 11.8452 2.125 11.5 2.125H9C7.42369 2.125 6.29166 2.12586 5.41504 2.22083C4.55011 2.31454 4.00826 2.49383 3.58493 2.8014C3.28426 3.01985 3.01985 3.28426 2.8014 3.58493C2.49383 4.00826 2.31454 4.55011 2.22083 5.41504C2.12586 6.29166 2.125 7.42369 2.125 9C2.125 10.5763 2.12586 11.7083 2.22083 12.585C2.31454 13.4499 2.49383 13.9917 2.8014 14.4151C3.01985 14.7157 3.28426 14.9802 3.58493 15.1986C4.00826 15.5062 4.55011 15.6855 5.41504 15.7792C6.29166 15.8741 7.42369 15.875 9 15.875C10.5763 15.875 11.7083 15.8741 12.585 15.7792C13.4499 15.6855 13.9917 15.5062 14.4151 15.1986C14.7157 14.9802 14.9802 14.7157 15.1986 14.4151C15.5062 13.9917 15.6855 13.4499 15.7792 12.585C15.8741 11.7083 15.875 10.5763 15.875 9V6.5C15.875 6.15482 16.1548 5.875 16.5 5.875C16.8452 5.875 17.125 6.15482 17.125 6.5V9.03779V9.03784C17.125 10.5682 17.125 11.7679 17.0219 12.7196C16.9167 13.6909 16.6981 14.4779 16.2099 15.1498C15.9143 15.5566 15.5566 15.9143 15.1498 16.2099C14.4779 16.6981 13.6909 16.9167 12.7196 17.0219C11.7679 17.125 10.5682 17.125 9.03778 17.125H9.03773H8.96221H8.96216C7.43178 17.125 6.23215 17.125 5.2804 17.0219C4.30912 16.9167 3.52213 16.6981 2.8502 16.2099C2.44341 15.9143 2.08568 15.5566 1.79013 15.1498C1.30194 14.4779 1.08334 13.6909 0.978107 12.7196C0.874988 11.7678 0.874993 10.5682 0.875 9.03772V9.03771V8.96229V8.96228C0.874993 7.43184 0.874988 6.23217 0.978107 5.2804C1.08334 4.30912 1.30194 3.52213 1.79013 2.8502C2.08568 2.44341 2.44341 2.08567 2.8502 1.79013C3.52213 1.30194 4.30912 1.08334 5.2804 0.978107C6.23218 0.874988 7.43185 0.874993 8.96229 0.875L11.5 0.875C11.8452 0.875 12.125 1.15482 12.125 1.5ZM4.55808 11.9421C4.24818 11.7901 4.12019 11.4156 4.27221 11.1057L5.48915 8.62483C6.34129 6.88764 8.84584 6.97248 9.57847 8.76335C9.90276 9.55608 11.0114 9.59364 11.3886 8.82467L12.6055 6.3438C12.7576 6.0339 13.132 5.9059 13.4419 6.05792C13.7518 6.20994 13.8798 6.5844 13.7278 6.8943L12.5108 9.37517C11.6587 11.1124 9.15416 11.0275 8.42153 9.23665C8.09724 8.44392 6.9886 8.40636 6.6114 9.17533L5.39446 11.6562C5.24244 11.9661 4.86799 12.0941 4.55808 11.9421Z" fill="#0E6EFF"/>
<path d="M13.5833 2.33333C13.5833 3.48393 14.5161 4.41667 15.6667 4.41667C16.8173 4.41667 17.75 3.48393 17.75 2.33333C17.75 1.18274 16.8173 0.25 15.6667 0.25C14.5161 0.25 13.5833 1.18274 13.5833 2.33333ZM14.8333 2.33333C14.8333 2.79357 15.2064 3.16667 15.6667 3.16667C16.1269 3.16667 16.5 2.79357 16.5 2.33333C16.5 1.8731 16.1269 1.5 15.6667 1.5C15.2064 1.5 14.8333 1.8731 14.8333 2.33333ZM12.125 1.5C12.125 1.84518 11.8452 2.125 11.5 2.125H9C7.42369 2.125 6.29166 2.12586 5.41504 2.22083C4.55011 2.31454 4.00826 2.49383 3.58493 2.8014C3.28426 3.01985 3.01985 3.28426 2.8014 3.58493C2.49383 4.00826 2.31454 4.55011 2.22083 5.41504C2.12586 6.29166 2.125 7.42369 2.125 9C2.125 10.5763 2.12586 11.7083 2.22083 12.585C2.31454 13.4499 2.49383 13.9917 2.8014 14.4151C3.01985 14.7157 3.28426 14.9802 3.58493 15.1986C4.00826 15.5062 4.55011 15.6855 5.41504 15.7792C6.29166 15.8741 7.42369 15.875 9 15.875C10.5763 15.875 11.7083 15.8741 12.585 15.7792C13.4499 15.6855 13.9917 15.5062 14.4151 15.1986C14.7157 14.9802 14.9802 14.7157 15.1986 14.4151C15.5062 13.9917 15.6855 13.4499 15.7792 12.585C15.8741 11.7083 15.875 10.5763 15.875 9V6.5C15.875 6.15482 16.1548 5.875 16.5 5.875C16.8452 5.875 17.125 6.15482 17.125 6.5V9.03779V9.03784C17.125 10.5682 17.125 11.7679 17.0219 12.7196C16.9167 13.6909 16.6981 14.4779 16.2099 15.1498C15.9143 15.5566 15.5566 15.9143 15.1498 16.2099C14.4779 16.6981 13.6909 16.9167 12.7196 17.0219C11.7679 17.125 10.5682 17.125 9.03778 17.125H9.03773H8.96221H8.96216C7.43178 17.125 6.23215 17.125 5.2804 17.0219C4.30912 16.9167 3.52213 16.6981 2.8502 16.2099C2.44341 15.9143 2.08568 15.5566 1.79013 15.1498C1.30194 14.4779 1.08334 13.6909 0.978107 12.7196C0.874988 11.7678 0.874993 10.5682 0.875 9.03772V9.03771V8.96229V8.96228C0.874993 7.43184 0.874988 6.23217 0.978107 5.2804C1.08334 4.30912 1.30194 3.52213 1.79013 2.8502C2.08568 2.44341 2.44341 2.08567 2.8502 1.79013C3.52213 1.30194 4.30912 1.08334 5.2804 0.978107C6.23218 0.874988 7.43185 0.874993 8.96229 0.875L11.5 0.875C11.8452 0.875 12.125 1.15482 12.125 1.5ZM4.55808 11.9421C4.24818 11.7901 4.12019 11.4156 4.27221 11.1057L5.48915 8.62483C6.34129 6.88764 8.84584 6.97248 9.57847 8.76335C9.90276 9.55608 11.0114 9.59364 11.3886 8.82467L12.6055 6.3438C12.7576 6.0339 13.132 5.9059 13.4419 6.05792C13.7518 6.20994 13.8798 6.5844 13.7278 6.8943L12.5108 9.37517C11.6587 11.1124 9.15416 11.0275 8.42153 9.23665C8.09724 8.44392 6.9886 8.40636 6.6114 9.17533L5.39446 11.6562C5.24244 11.9661 4.86799 12.0941 4.55808 11.9421Z" stroke="#FFAD0E"/>
</g>
</g>
</svg>
