<svg xmlns="http://www.w3.org/2000/svg" width="21" height="21" viewBox="0 0 21 21" fill="none">
  <path fill-rule="evenodd" clip-rule="evenodd" d="M10.1155 2.37501C8.69359 2.37479 7.82591 2.37465 7.10298 2.60955C5.64421 3.08353 4.50052 4.22722 4.02654 5.68599C3.79165 6.40892 3.79178 7.2766 3.79201 8.6985L3.79202 15.0178C3.79201 15.7926 3.79201 16.4118 3.82957 16.8887C3.86658 17.3585 3.9453 17.8042 4.18384 18.1579C4.66252 18.8675 5.49677 19.2512 6.34707 19.1528C6.77082 19.1038 7.16043 18.8735 7.54126 18.5958C7.92775 18.314 8.39791 17.911 8.98617 17.4068L9.00767 17.3884C9.58333 16.8949 9.7472 16.7682 9.90331 16.713C10.1279 16.6337 10.3728 16.6337 10.5974 16.713C10.7535 16.7682 10.9174 16.8949 11.493 17.3884L11.5145 17.4068C12.1028 17.911 12.573 18.314 12.9594 18.5958C13.3403 18.8735 13.7299 19.1038 14.1536 19.1528C15.0039 19.2512 15.8382 18.8675 16.3169 18.1579C16.5554 17.8042 16.6341 17.3586 16.6711 16.8887C16.7087 16.4119 16.7087 15.7926 16.7087 15.0179L16.7087 8.6985C16.7089 7.2766 16.7091 6.40892 16.4742 5.68599C16.0002 4.22722 14.8565 3.08353 13.3977 2.60955C12.6748 2.37465 11.8071 2.37479 10.3852 2.37501H10.1155ZM7.48925 3.79837C7.99901 3.63274 8.65064 3.62503 10.2504 3.62503C11.8501 3.62503 12.5017 3.63274 13.0115 3.79837C14.0897 4.1487 14.935 4.99404 15.2853 6.07226C15.451 6.58202 15.4587 7.23365 15.4587 8.83336V14.9895C15.4587 15.7991 15.4582 16.3688 15.425 16.7905C15.3908 17.2251 15.327 17.39 15.2806 17.4588C15.063 17.7814 14.6838 17.9558 14.2973 17.9111C14.2148 17.9016 14.0481 17.8426 13.6959 17.5858C13.354 17.3365 12.9212 16.9661 12.3065 16.4393L12.2238 16.3683C11.7721 15.9804 11.4198 15.6779 11.0138 15.5344C10.5198 15.3599 9.98089 15.3599 9.48687 15.5344C9.08092 15.6779 8.72862 15.9804 8.27687 16.3683L8.19419 16.4393C7.57951 16.9661 7.14667 17.3365 6.80481 17.5858C6.4526 17.8426 6.28586 17.9016 6.20341 17.9111C5.81691 17.9558 5.4377 17.7814 5.22012 17.4588C5.1737 17.39 5.10994 17.2251 5.07571 16.7905C5.04249 16.3688 5.04202 15.7991 5.04202 14.9895V8.83336C5.04202 7.23365 5.04973 6.58202 5.21536 6.07226C5.5657 4.99404 6.41103 4.1487 7.48925 3.79837Z" fill="white"/>
</svg>