<?xml version="1.0" encoding="UTF-8"?>
<!-- Generator: visioncortex VTracer 0.6.3 -->
<svg version="1.1" xmlns="http://www.w3.org/2000/svg" width="1280" height="1280">
<path d="M0 0 C93.39 0 186.78 0 283 0 C283 3.3 283 6.6 283 10 C295.09 12.08 307.18 13.66 319.39 14.82 C331.47 16.05 343.84 18.14 352 28 C352 28.66 352 29.32 352 30 C352.61 30.11 353.22 30.22 353.84 30.33 C356.9 30.88 359.95 31.44 363 32 C364.9 32.34 364.9 32.34 366.84 32.7 C370.24 33.32 373.63 33.96 377.03 34.62 C378.89 34.98 380.76 35.33 382.63 35.68 C391.17 37.44 397.5 39.67 403 46.62 C407.63 52.32 413.88 53 420.75 54.38 C430.42 56.38 439.25 58.56 445 67 C448.54 71.57 452.79 72.37 458.12 73.81 C467.13 76.45 474.51 79.53 480.44 87.12 C485.1 92.35 491.89 94.27 498.38 96.56 C504.1 98.83 506.62 101.06 509.19 106.56 C510.64 109.36 511.39 110.71 514.26 112.07 C515.98 112.53 517.71 112.95 519.45 113.35 C527.99 115.53 535.05 122.86 540.96 129.06 C543.12 131.11 545.24 132.51 547.81 134 C548.69 134.52 549.57 135.04 550.48 135.58 C552.48 136.71 554.54 137.72 556.62 138.69 C560.98 141.09 563.2 145.37 565.96 149.38 C568.8 153.03 571.94 154.91 576 157 C581.69 160.39 584.31 163.97 587.5 169.69 C589.97 173.5 592.98 175 597 176.88 C602.95 179.81 605.32 184.28 607.97 190.13 C609.93 193.69 612.27 195.28 615.94 196.88 C621.4 199.54 623.61 203.24 626.38 208.5 C629.26 213.81 632.52 216.63 637.85 219.58 C641.98 222.76 643.94 226.37 646.44 230.88 C649.53 236.45 652.38 240.71 657.41 244.69 C664.65 250.64 668.03 260.02 670.87 268.64 C672.18 271.38 673.15 272.05 675.81 273.44 C684.53 278.59 686.79 285.73 690 295 C690.27 296.08 690.55 297.17 690.83 298.28 C691.72 301.2 691.72 301.2 694.4 302.09 C695.26 302.39 696.12 302.69 697 303 C703.65 310.19 706.95 319.02 709.44 328.31 C710.72 332.73 712.41 335.01 716 338 C723.34 344.63 725.59 352.18 727.62 361.62 C729.35 369.95 729.35 369.95 732 378 C733.65 378.71 735.32 379.37 737 380 C745.66 388.02 746.7 400.83 748.52 411.91 C750.14 424.3 750.14 424.3 757.45 433.64 C768.52 443.34 767.62 466.75 768.91 480.03 C769.58 486.8 770.54 493.35 772 500 C775.3 500 778.6 500 782 500 C782 592.73 782 685.46 782 781 C778.7 781.33 775.4 781.66 772 782 C770.45 790.54 769.08 799.09 768.05 807.71 C767.97 808.39 767.89 809.06 767.8 809.76 C767.39 813.14 767 816.53 766.62 819.92 C765.31 830.86 763.48 841.29 755 849 C754.34 849.33 753.68 849.66 753 850 C752.08 852.83 751.29 855.62 750.56 858.5 C750.34 859.35 750.12 860.2 749.89 861.08 C748.46 866.71 747.39 872.33 746.5 878.06 C745.06 886.89 742.99 893.81 735.88 899.56 C729.57 904.67 729.14 911.3 727.56 918.94 C725.27 929.81 722.87 936.13 714 943 C711.33 945.28 710.46 947.05 709.56 950.44 C709.31 951.32 709.06 952.2 708.8 953.11 C708.54 954.07 708.27 955.02 708 956 C705.41 965.1 702.68 972.47 694.94 978.31 C690.13 982.71 688.14 988.62 686.08 994.73 C683.84 1001.2 681.03 1004.64 675 1008 C674.01 1008.33 673.02 1008.66 672 1009 C670.92 1011.82 670.92 1011.82 670 1015.25 C668.14 1021.16 665.48 1025.56 661.44 1030.25 C660.97 1030.8 660.5 1031.35 660.01 1031.91 C657.54 1034.65 655.35 1036.49 652 1038 C651.29 1039.65 650.63 1041.32 650 1043 C648.79 1044.79 647.51 1046.51 646.21 1048.24 C644.83 1050.14 644.83 1050.14 643.62 1053.06 C641.49 1056.93 638.68 1059.57 635 1062 C634.31 1062.14 633.62 1062.28 632.9 1062.42 C630.85 1062.82 630.85 1062.82 629.92 1064.72 C629.62 1065.47 629.31 1066.23 629 1067 C625.07 1074.95 622.09 1080.56 613.88 1084.5 C609.19 1086.94 607.23 1090.41 605.06 1095.06 C602.54 1100.26 599.2 1102.48 594 1104.75 C589.92 1106.7 588.37 1109.05 586.19 1112.91 C582.39 1119.58 578.16 1122.65 571.26 1125.83 C567.62 1127.71 565.98 1130.47 563.83 1133.84 C560.01 1139.42 556.08 1142.08 550.06 1145 C544.11 1148.08 539.51 1150.75 535.42 1156.19 C529.9 1163.25 521.58 1166.16 513.35 1168.87 C510.61 1170.19 509.95 1171.16 508.56 1173.81 C503.95 1181.62 498.49 1183.85 490.12 1186.79 C485.77 1188.48 482.75 1189.75 480.31 1193.81 C474.07 1202.41 463.86 1204.45 454.07 1206.92 C450.93 1207.73 447.92 1208.55 445 1210 C444.29 1211.65 443.63 1213.32 443 1215 C436.55 1223.9 423.62 1225.54 413.41 1227.32 C410.12 1227.98 407.11 1228.74 404 1230 C403.71 1230.74 403.42 1231.48 403.12 1232.25 C401.3 1236.71 398.19 1238.76 394 1241 C386.42 1243.67 378.57 1245.13 370.69 1246.56 C357.82 1248.68 357.82 1248.68 347.74 1256.29 C335.89 1267.93 308.23 1266.6 292.37 1268.57 C288.91 1269.01 285.45 1269.5 282 1270 C282.33 1273.3 282.66 1276.6 283 1280 C189.94 1280 96.88 1280 1 1280 C0.67 1276.7 0.34 1273.4 0 1270 C-9.4 1267.58 -19.01 1266.81 -28.64 1265.83 C-58.01 1262.8 -58.01 1262.8 -68.69 1252.38 C-75.38 1246.54 -87.35 1245.89 -95.88 1244.5 C-105.01 1242.99 -112.36 1240.64 -119 1234 C-119.66 1231.84 -119.66 1231.84 -120 1230 C-121.69 1229.58 -123.39 1229.15 -125.08 1228.73 C-126.54 1228.37 -127.99 1228 -129.45 1227.63 C-132.78 1226.8 -136.11 1225.98 -139.45 1225.21 C-148.83 1223.03 -155.15 1220.8 -161 1213 C-164.15 1208.92 -167.42 1208.09 -172.22 1206.77 C-181.21 1204.28 -191.75 1201.31 -196.88 1192.94 C-200.9 1187.37 -208.05 1185.65 -214.38 1183.5 C-218.86 1181.65 -221.79 1179.48 -223.96 1175.04 C-225.74 1171.44 -226.89 1169.42 -230.75 1167.95 C-232.36 1167.54 -232.36 1167.54 -234 1167.12 C-243.13 1164.8 -250.69 1159.26 -256.57 1151.88 C-258.9 1149.11 -260.75 1147.62 -263.88 1145.88 C-264.74 1145.38 -265.61 1144.88 -266.5 1144.37 C-268.02 1143.54 -269.53 1142.72 -271.06 1141.91 C-276.27 1139.12 -278.84 1135.96 -281.81 1130.94 C-284.39 1127.47 -287.26 1125.93 -291 1124 C-295.84 1121.06 -299.35 1118.22 -301.97 1113.11 C-305.06 1107.32 -308.67 1105.26 -314.48 1102.36 C-318.25 1100.33 -320.14 1097.98 -321.83 1094.09 C-324.05 1089.04 -326.11 1086.89 -330.91 1084.19 C-337.57 1080.39 -340.65 1076.17 -343.82 1069.27 C-345.95 1065.18 -349.28 1063.46 -353.06 1061.06 C-357.34 1058.06 -359.69 1054.77 -361.94 1050.12 C-364.61 1044.62 -367.52 1040.05 -372.38 1036.25 C-379.82 1030.12 -383.55 1021.69 -385.88 1012.53 C-387.31 1009.29 -388.86 1008.53 -392 1007 C-398.96 1003.38 -401.46 997.65 -403.85 990.44 C-405.63 985.12 -407.49 982.28 -411.88 978.69 C-420.69 971.3 -423.38 960.7 -426.04 949.9 C-427.29 946.14 -428.86 944.89 -431.9 942.53 C-432.57 942 -433.25 941.48 -433.94 940.94 C-434.94 940.18 -434.94 940.18 -435.96 939.4 C-441.95 932.34 -443.25 922.25 -444.98 913.42 C-446.18 907.84 -447.38 904.7 -452 901 C-460.06 893.93 -461.76 884.74 -463.62 874.56 C-463.83 873.49 -464.03 872.43 -464.24 871.33 C-464.64 869.23 -465.04 867.13 -465.43 865.02 C-466.25 860.68 -467.12 856.34 -468 852 C-468.66 852 -469.32 852 -470 852 C-471.59 850.42 -471.59 850.42 -473.38 848.19 C-473.96 847.48 -474.55 846.77 -475.15 846.04 C-480.63 837.03 -481.91 827.39 -483.06 817.06 C-483.31 815.01 -483.55 812.95 -483.8 810.9 C-483.97 809.53 -484.13 808.17 -484.29 806.81 C-485 800.88 -485.84 794.97 -486.75 789.06 C-486.88 788.23 -487.01 787.4 -487.14 786.54 C-487.42 784.69 -487.71 782.85 -488 781 C-491.3 781 -494.6 781 -498 781 C-498 687.61 -498 594.22 -498 498 C-494.7 498 -491.4 498 -488 498 C-487.39 493.98 -486.79 489.96 -486.19 485.94 C-486 484.72 -485.82 483.5 -485.63 482.25 C-484.6 475.32 -483.67 468.39 -482.85 461.43 C-480.36 440.62 -480.36 440.62 -472.5 431.75 C-464.78 422.82 -464 411.19 -462.14 399.94 C-460.48 390.39 -457.11 383.01 -449.38 376.94 C-446.25 373.07 -445.78 369.56 -444.8 364.75 C-440.33 343.78 -440.33 343.78 -433 338 C-432.11 337.5 -431.23 337.01 -430.31 336.5 C-425.35 333.28 -424.44 326.06 -423.19 320.62 C-421.03 312.04 -417.79 306.13 -410.88 300.56 C-406.98 297.36 -405.56 294.34 -403.92 289.63 C-401.65 283.15 -399.14 276.59 -393 273 C-389.69 271.75 -389.69 271.75 -387 271 C-386.91 270.37 -386.83 269.74 -386.74 269.09 C-384.95 258.21 -378.25 247.79 -369.44 241.04 C-366.72 238.76 -365.52 236.78 -363.94 233.62 C-359.94 225.96 -356.58 220.71 -348.94 216.19 C-344.91 213.19 -343.15 209.4 -341.03 204.98 C-338.55 200.35 -336.34 198.44 -331.56 196.19 C-325.83 193.39 -324.06 190.26 -321.38 184.62 C-318.57 179.29 -314.41 176.52 -308.94 174.31 C-304.08 172.11 -302.64 168.16 -300.35 163.56 C-297.78 158.7 -294.3 157.1 -289.44 155.06 C-284.14 152.81 -282.1 149.74 -279.06 144.94 C-275.55 139.93 -271.34 137.6 -265.98 134.98 C-261.37 132.69 -258.01 130.13 -254.75 126.19 C-248.78 119.19 -242.38 115.29 -233.62 112.56 C-228.95 111.15 -228.95 111.15 -225.39 108.05 C-224.4 106 -224.4 106 -223.87 103.96 C-221.78 99.25 -217.04 97.39 -212.47 95.61 C-211.82 95.37 -211.17 95.13 -210.5 94.88 C-209.85 94.62 -209.2 94.37 -208.53 94.11 C-205.73 93.03 -202.92 91.97 -200.09 90.96 C-197.17 89.62 -197.16 87.93 -196 85 C-188.52 77.33 -178.21 74.55 -168.07 72.09 C-163.5 70.47 -161.6 67.8 -158.75 64 C-152.73 56.76 -142.38 55.06 -133.58 53.32 C-125.19 51.67 -125.19 51.67 -119 46 C-111.66 38.34 -102.85 36.19 -92.69 34.5 C-76.5 32.19 -76.5 32.19 -63.55 23 C-55.5 16.69 -44.82 16.03 -35 14.94 C-32.26 14.61 -29.52 14.28 -26.78 13.95 C-25.77 13.83 -25.77 13.83 -24.75 13.71 C-19 13.02 -13.28 12.18 -7.56 11.25 C-6.78 11.12 -5.99 10.99 -5.18 10.86 C-3.45 10.58 -1.73 10.29 0 10 C0 6.7 0 3.4 0 0 Z M172 310 C171.68 311.67 171.37 313.33 171.06 315 C170.8 316.39 170.8 316.39 170.54 317.81 C169.01 326.9 168.87 335.75 168.89 344.94 C168.89 346.58 168.89 348.21 168.89 349.85 C168.9 354.33 168.9 358.81 168.91 363.3 C168.92 368.14 168.92 372.98 168.93 377.82 C168.93 386.22 168.94 394.62 168.96 403.01 C168.97 415.19 168.98 427.38 168.99 439.56 C169 459.39 169.02 479.22 169.03 499.05 C169.04 500.24 169.04 501.42 169.04 502.65 C169.05 519.41 169.07 536.18 169.09 552.95 C169.09 554.13 169.09 555.31 169.1 556.52 C169.1 557.69 169.1 558.87 169.1 560.08 C169.12 579.79 169.14 599.51 169.15 619.22 C169.15 631.34 169.17 643.47 169.19 655.59 C169.2 663.93 169.21 672.28 169.21 680.63 C169.21 685.42 169.21 690.21 169.22 695 C169.28 714.47 169.03 733.89 168.11 753.35 C168.05 754.62 168.05 754.62 167.99 755.92 C167.56 765.24 166.93 774.53 166.04 783.81 C165.96 784.63 165.88 785.45 165.8 786.3 C164.64 797.74 161.31 807.48 152.52 815.32 C150.7 817.34 149.95 819.17 148.98 821.71 C148.62 822.63 148.25 823.54 147.88 824.48 C147.13 826.4 146.39 828.32 145.67 830.24 C142.78 837.4 140.03 840.33 133.18 843.96 C127.52 847.01 124.46 850.91 120.81 856.12 C113.71 864.37 100.38 864.43 90.32 865.7 C88.31 865.96 86.32 866.26 84.32 866.57 C77.9 867.35 71.4 867.24 64.94 867.25 C63.88 867.25 63.88 867.25 62.8 867.25 C20.32 867.21 20.32 867.21 5.59 855.66 C4 854 4 854 2.72 851.56 C0.47 848.21 -2.38 846.75 -5.88 844.94 C-12.79 841.26 -17.72 838.44 -21.06 831.12 C-24.58 823.07 -24.58 823.07 -30.88 817.31 C-39.03 811.28 -40.91 801.59 -42.41 792.04 C-43.53 783.56 -43.41 775 -43.34 766.46 C-43.31 763.37 -43.32 760.28 -43.32 757.2 C-43.28 724.62 -43.28 724.62 -36 715 C-34.06 713.44 -32.04 712.11 -29.96 710.75 C-27.44 708.51 -26.49 706.26 -25.12 703.19 C-22.46 697.24 -19.02 693.8 -13.98 689.74 C-13.32 689.17 -12.67 688.59 -12 688 C-12 687.34 -12 686.68 -12 686 C-11.41 685.73 -10.81 685.46 -10.2 685.18 C-8.01 684.01 -6.54 682.77 -4.75 681.06 C-0.26 677.15 4.56 675.65 10.22 674.14 C17.28 672.2 20.43 670.86 25 665 C34.85 658.45 45.91 656.47 57.48 655.52 C58.9 655.4 58.9 655.4 60.34 655.28 C62.21 655.14 64.08 655.01 65.94 654.91 C66.8 654.85 67.66 654.79 68.54 654.72 C69.69 654.66 69.69 654.66 70.86 654.59 C73.94 653.74 75.04 652.53 77 650 C77.39 647.23 77.55 644.87 77.52 642.1 C77.52 641.31 77.53 640.52 77.54 639.7 C77.56 637.08 77.54 634.46 77.53 631.84 C77.53 630.01 77.54 628.18 77.54 626.35 C77.55 622.52 77.54 618.68 77.52 614.84 C77.5 609.95 77.51 605.06 77.54 600.16 C77.55 596.38 77.55 592.6 77.54 588.82 C77.53 587.02 77.54 585.21 77.55 583.41 C77.96 569.1 77.96 569.1 73 556 C69.96 554.81 67.97 555.03 64.85 555.86 C64.03 556.06 63.2 556.27 62.35 556.49 C61 556.83 61 556.83 59.62 557.19 C44.45 560.86 29.01 562.57 13.53 564.41 C11.37 564.67 9.21 564.93 7.05 565.2 C5.13 565.43 3.2 565.66 1.27 565.87 C-4 566.52 -8.3 567.47 -13 570 C-14.14 571.72 -15.27 573.44 -16.41 575.17 C-22.47 582.13 -33.31 584.17 -41.94 586.26 C-45.85 587.24 -48.38 587.93 -51 591 C-51.65 592.29 -52.25 593.61 -52.81 594.94 C-55.1 599.65 -58.02 601.91 -62.99 603.73 C-64.02 604.08 -64.02 604.08 -65.06 604.44 C-69.67 606.09 -72.74 608.48 -74.98 612.96 C-75.3 613.65 -75.61 614.35 -75.94 615.06 C-78.37 620.26 -82.1 622.11 -87.19 624.5 C-91.75 626.93 -93.22 630.18 -94.88 634.94 C-96.57 639.3 -98.21 642.09 -102 645 C-103.14 645.34 -104.29 645.68 -105.47 646.03 C-107.88 647.04 -108.8 647.63 -110.07 649.95 C-110.91 652.47 -111.57 654.98 -112.19 657.56 C-112.68 659.38 -113.17 661.19 -113.66 663.01 C-114 664.31 -114 664.31 -114.35 665.63 C-116.37 673 -118.77 680.48 -125.62 684.56 C-128.42 686.26 -128.81 687 -130 690 C-132.88 702.1 -133.5 714.56 -134.19 726.94 C-134.23 727.68 -134.27 728.42 -134.32 729.19 C-135.33 747.14 -135.18 765.03 -134.31 782.98 C-134.19 785.57 -134.08 788.15 -133.97 790.73 C-133.36 804.41 -132.57 818.97 -128 832 C-127.07 832.6 -126.14 833.2 -125.19 833.81 C-117.14 839.33 -115.14 851 -113 860 C-112.67 862.02 -112.36 864.04 -112.06 866.06 C-111.26 870.82 -109.96 873.03 -106 876 C-104.99 876.64 -103.98 877.28 -102.94 877.94 C-98.1 881.33 -96.05 885.85 -93.56 891.06 C-91.06 896.16 -88.13 899.42 -83.56 902.81 C-81.28 904.76 -79.99 906.33 -78.31 908.75 C-74.66 913.82 -69.95 917.27 -65 921 C-62.04 923.26 -60.16 924.75 -58.19 927.94 C-54.15 933.58 -48.85 935.8 -42.38 937.88 C-36.99 939.71 -34.02 942.21 -31 947 C-30.61 948 -30.61 948 -30.22 949.03 C-29.16 951.17 -29.16 951.17 -26.93 951.87 C-26.09 952.03 -25.24 952.2 -24.37 952.38 C-23.43 952.58 -22.48 952.77 -21.51 952.98 C-20.5 953.17 -19.48 953.36 -18.44 953.56 C-17.4 953.77 -16.36 953.99 -15.29 954.2 C-8.55 955.56 -1.8 956.76 4.98 957.91 C14.01 959.46 23.03 961.55 31.69 964.56 C41.81 968.06 51.31 969.53 62 969 C62.84 968.98 63.68 968.96 64.55 968.94 C70.84 968.6 76.14 966.58 82.01 964.39 C95.49 959.54 109.54 957.23 123.71 955.52 C134.13 954.32 134.13 954.32 142.33 948.33 C143.12 947.12 143.91 945.91 144.69 944.69 C147.03 941.67 150.21 940.32 153.62 938.75 C154.33 938.41 155.03 938.07 155.75 937.72 C160.66 935.42 165.52 933.78 170.86 932.77 C174.79 931.36 175.92 928.15 177.69 924.56 C180.51 919.5 185.33 916.93 190.69 915.06 C195.53 912.84 197.83 908.55 199.88 903.88 C202.01 899.33 204.51 898.13 209 896 C213.6 893.7 215.05 891.77 217 887 C217.48 885.48 217.96 883.96 218.44 882.44 C220.63 875.71 224.19 872.83 230 869 C232.88 865.8 234 862.51 235.3 858.44 C235.73 857.16 236.15 855.87 236.57 854.58 C237.23 852.57 237.88 850.56 238.52 848.55 C239.14 846.59 239.78 844.64 240.43 842.69 C240.99 840.95 240.99 840.95 241.56 839.17 C243.56 834.76 246.6 832.23 250.18 829.08 C256.87 821.44 256.83 807.72 257.56 798.06 C257.68 796.68 257.8 795.29 257.91 793.9 C258.1 791.76 258.28 789.61 258.45 787.47 C258.86 782.52 259.32 777.57 259.82 772.62 C259.88 771.94 259.95 771.26 260.02 770.56 C260.34 767.34 260.67 764.12 261 760.89 C262.69 743.81 263.22 726.77 263.54 709.62 C263.58 707.36 263.62 705.09 263.67 702.82 C263.78 696.79 263.89 690.76 264 684.73 C264.06 680.99 264.13 677.25 264.2 673.5 C264.66 648.7 265.1 623.91 264.99 599.11 C264.98 597.83 264.98 597.83 264.98 596.52 C264.95 588.72 264.9 580.92 264.78 573.13 C264.44 549.12 264.44 549.12 266.7 537.83 C266.84 537.07 266.99 536.32 267.14 535.54 C268.28 530.81 269.89 528.57 274 526 C280.25 523.44 287.21 520.87 294 522 C296.97 523.87 298.74 525.63 300.75 528.5 C305.69 533.99 312.26 535.13 319.31 536.38 C328.09 538.01 336.6 540.63 342.44 547.75 C342.83 548.32 343.22 548.89 343.62 549.48 C351.11 557.71 374.62 555.71 385.49 556.23 C389.15 556.38 392.8 556.48 396.46 556.53 C397.85 556.55 399.25 556.58 400.64 556.62 C402.59 556.68 404.55 556.69 406.5 556.69 C407.62 556.7 408.73 556.72 409.87 556.73 C414.19 555.72 416.45 553.59 419 550 C419.6 547.07 419.83 544.96 419.78 542.04 C419.79 541.26 419.8 540.49 419.81 539.69 C419.83 537.14 419.82 534.6 419.8 532.05 C419.8 530.28 419.81 528.5 419.81 526.73 C419.82 523.01 419.81 519.3 419.78 515.59 C419.75 510.83 419.77 506.07 419.8 501.31 C419.83 497.65 419.82 493.98 419.8 490.32 C419.8 488.57 419.8 486.81 419.82 485.06 C419.83 482.6 419.81 480.15 419.78 477.7 C419.79 476.62 419.79 476.62 419.81 475.51 C419.82 473.22 419.82 473.22 419 470 C415 466.59 411.9 465.48 406.71 465.06 C405.52 464.95 404.33 464.84 403.11 464.73 C401.87 464.63 400.64 464.54 399.38 464.44 C373.38 462.29 373.38 462.29 365 455 C364.29 453.73 364.29 453.73 363.56 452.44 C359.74 446.47 350.21 445.01 343.8 443.03 C338.74 441.17 335.89 439.38 333.31 434.62 C330.37 429.91 327.32 428.36 322.33 426.17 C317.87 423.93 315.79 420.28 313.2 416.08 C310.93 412.91 308.7 411.05 305.62 408.69 C300 403.78 297.95 398.99 295.93 391.89 C294.15 385.66 291.6 383.12 286.5 379.5 C279.71 373.58 278.81 363.81 277.68 355.3 C277.58 354.54 277.48 353.77 277.37 352.99 C276.94 349.82 276.52 346.65 276.17 343.48 C275.17 334.61 274.33 328.3 267.48 322.17 C266.52 321.45 265.57 320.74 264.58 320 C260.93 317.17 259.25 313.99 257 310 C254.07 308.53 251.12 308.86 247.91 308.87 C247.18 308.87 246.45 308.87 245.69 308.87 C243.27 308.86 240.85 308.86 238.43 308.87 C236.74 308.87 235.06 308.87 233.37 308.86 C229.84 308.86 226.3 308.86 222.76 308.87 C218.24 308.88 213.72 308.87 209.2 308.87 C205.72 308.86 202.23 308.86 198.75 308.87 C197.09 308.87 195.42 308.87 193.75 308.86 C191.42 308.86 189.08 308.87 186.74 308.87 C186.06 308.87 185.37 308.87 184.67 308.86 C180.34 308.88 176.26 309.31 172 310 Z " fill="#000000" transform="translate(498,0)"/>
</svg>
