<svg xmlns="http://www.w3.org/2000/svg" width="20" height="21" viewBox="0 0 20 21" fill="none">
  <g clip-path="url(#clip0_359_7712)">
    <path d="M6.2918 18.625C13.8371 18.625 17.9652 12.3723 17.9652 6.95155C17.9652 6.77577 17.9613 6.59608 17.9535 6.4203C18.7566 5.83955 19.4496 5.12021 20 4.29608C19.2521 4.62883 18.458 4.84615 17.6449 4.94061C18.5011 4.42742 19.1421 3.62123 19.4492 2.67147C18.6438 3.1488 17.763 3.48551 16.8445 3.66718C16.2257 3.00963 15.4075 2.57426 14.5164 2.42838C13.6253 2.28249 12.711 2.43421 11.9148 2.86008C11.1186 3.28595 10.4848 3.96225 10.1115 4.78443C9.73825 5.6066 9.64619 6.52885 9.84961 7.40858C8.21874 7.32674 6.62328 6.90309 5.16665 6.16508C3.71002 5.42708 2.42474 4.3912 1.39414 3.1246C0.870333 4.0277 0.710047 5.09637 0.945859 6.11341C1.18167 7.13045 1.79589 8.01954 2.66367 8.59999C2.01219 8.5793 1.37498 8.4039 0.804688 8.08827V8.13905C0.804104 9.08679 1.13175 10.0055 1.73192 10.739C2.3321 11.4725 3.16777 11.9755 4.09687 12.1625C3.49338 12.3276 2.85999 12.3517 2.2457 12.2328C2.50788 13.0479 3.01798 13.7607 3.70481 14.2719C4.39164 14.7831 5.22093 15.0672 6.07695 15.0844C4.62369 16.2259 2.82848 16.8451 0.980469 16.8422C0.652739 16.8417 0.325333 16.8216 0 16.782C1.87738 17.9865 4.06128 18.6262 6.2918 18.625Z" fill="#138EFF"/>
  </g>
  <defs>
    <clipPath id="clip0_359_7712">
      <rect width="20" height="20" fill="white" transform="translate(0 0.5)"/>
    </clipPath>
  </defs>
</svg>