<svg xmlns="http://www.w3.org/2000/svg" width="24" height="25" viewBox="0 0 24 25" fill="none">
  <path d="M14.25 8.59424C14.25 9.83688 13.2426 10.8442 12 10.8442V12.3442C14.0711 12.3442 15.75 10.6653 15.75 8.59424H14.25ZM12 10.8442C10.7574 10.8442 9.75 9.83688 9.75 8.59424H8.25C8.25 10.6653 9.92893 12.3442 12 12.3442V10.8442ZM9.75 8.59424C9.75 7.3516 10.7574 6.34424 12 6.34424V4.84424C9.92893 4.84424 8.25 6.52317 8.25 8.59424H9.75ZM12 6.34424C13.2426 6.34424 14.25 7.3516 14.25 8.59424H15.75C15.75 6.52317 14.0711 4.84424 12 4.84424V6.34424ZM9 15.3442H15V13.8442H9V15.3442ZM15 19.8442H9V21.3442H15V19.8442ZM9 19.8442C7.75736 19.8442 6.75 18.8369 6.75 17.5942H5.25C5.25 19.6653 6.92893 21.3442 9 21.3442V19.8442ZM17.25 17.5942C17.25 18.8369 16.2426 19.8442 15 19.8442V21.3442C17.0711 21.3442 18.75 19.6653 18.75 17.5942H17.25ZM15 15.3442C16.2426 15.3442 17.25 16.3516 17.25 17.5942H18.75C18.75 15.5232 17.0711 13.8442 15 13.8442V15.3442ZM9 13.8442C6.92893 13.8442 5.25 15.5232 5.25 17.5942H6.75C6.75 16.3516 7.75736 15.3442 9 15.3442V13.8442Z" fill="white"/>
  <path d="M7.75214 11.2329C7.59441 10.9795 7.29846 10.8442 7 10.8442C5.75736 10.8442 4.75 9.83688 4.75 8.59424C4.75 7.3516 5.75736 6.34424 7 6.34424C7.29846 6.34424 7.59441 6.20897 7.75214 5.95558C7.75912 5.94438 7.76613 5.9332 7.7732 5.92206C8.0358 5.50755 7.90275 4.92064 7.415 4.86694C7.27873 4.85194 7.14027 4.84424 7 4.84424C4.92893 4.84424 3.25 6.52317 3.25 8.59424C3.25 10.6653 4.92893 12.3442 7 12.3442C7.14027 12.3442 7.27873 12.3365 7.415 12.3215C7.90275 12.2678 8.0358 11.6809 7.7732 11.2664C7.76614 11.2553 7.75912 11.2441 7.75214 11.2329Z" fill="white"/>
  <path d="M4.70829 19.1611C4.59477 18.9717 4.39439 18.8442 4.17359 18.8442H4C2.75736 18.8442 1.75 17.8369 1.75 16.5942C1.75 15.3516 2.75736 14.3442 4 14.3442H4.17359C4.39439 14.3442 4.59477 14.2168 4.70829 14.0274C4.98539 13.5651 4.68468 12.8442 4.14569 12.8442H4C1.92893 12.8442 0.25 14.5232 0.25 16.5942C0.25 18.6653 1.92893 20.3442 4 20.3442H4.14569C4.68469 20.3442 4.98539 19.6234 4.70829 19.1611Z" fill="white"/>
  <path d="M16.2268 11.2664C15.9642 11.6809 16.0973 12.2678 16.585 12.3215C16.7213 12.3365 16.8597 12.3442 17 12.3442C19.0711 12.3442 20.75 10.6653 20.75 8.59424C20.75 6.52317 19.0711 4.84424 17 4.84424C16.8597 4.84424 16.7213 4.85194 16.585 4.86694C16.0973 4.92064 15.9642 5.50755 16.2268 5.92205C16.2339 5.9332 16.2409 5.94438 16.2479 5.95558C16.4056 6.20896 16.7015 6.34424 17 6.34424C18.2426 6.34424 19.25 7.3516 19.25 8.59424C19.25 9.83688 18.2426 10.8442 17 10.8442C16.7015 10.8442 16.4056 10.9795 16.2479 11.2329C16.2409 11.2441 16.2339 11.2553 16.2268 11.2664Z" fill="white"/>
  <path d="M19.2917 19.1611C19.0146 19.6234 19.3153 20.3442 19.8543 20.3442H20C22.0711 20.3442 23.75 18.6653 23.75 16.5942C23.75 14.5232 22.0711 12.8442 20 12.8442H19.8543C19.3153 12.8442 19.0146 13.5651 19.2917 14.0274C19.4052 14.2168 19.6056 14.3442 19.8264 14.3442H20C21.2426 14.3442 22.25 15.3516 22.25 16.5942C22.25 17.8369 21.2426 18.8442 20 18.8442H19.8264C19.6056 18.8442 19.4052 18.9717 19.2917 19.1611Z" fill="white"/>
</svg>