<svg xmlns="http://www.w3.org/2000/svg" width="26" height="27" viewBox="0 0 26 27" fill="none">
  <path d="M25.741 8.30007C25.741 8.30007 25.4871 6.5075 24.7051 5.72039C23.7148 4.68445 22.6078 4.67937 22.1 4.61843C18.4641 4.35437 13.0051 4.35437 13.0051 4.35437H12.9949C12.9949 4.35437 7.53594 4.35437 3.9 4.61843C3.39219 4.67937 2.28516 4.68445 1.29492 5.72039C0.512891 6.5075 0.264062 8.30007 0.264062 8.30007C0.264062 8.30007 0 10.4075 0 12.5098V14.4802C0 16.5825 0.258984 18.6899 0.258984 18.6899C0.258984 18.6899 0.512891 20.4825 1.28984 21.2696C2.28008 22.3055 3.58008 22.27 4.15898 22.3817C6.24102 22.5798 13 22.6407 13 22.6407C13 22.6407 18.4641 22.6305 22.1 22.3716C22.6078 22.3106 23.7148 22.3055 24.7051 21.2696C25.4871 20.4825 25.741 18.6899 25.741 18.6899C25.741 18.6899 26 16.5876 26 14.4802V12.5098C26 10.4075 25.741 8.30007 25.741 8.30007ZM10.3137 16.8719V9.56453L17.3367 13.2309L10.3137 16.8719Z" fill="#FF124B"/>
</svg>