<svg xmlns="http://www.w3.org/2000/svg" width="24" height="25" viewBox="0 0 24 25" fill="none">
  <path d="M8 12.5H7.25H8ZM16 12.5H16.75H16ZM12 16.5V17.25V16.5ZM14.0694 22.2856L14.2238 23.0195L14.0694 22.2856ZM9.9306 22.2856L9.77616 23.0195L9.9306 22.2856ZM2.73861 8.72119L2.04429 8.43761H2.04429L2.73861 8.72119ZM2.21438 14.5694L1.48045 14.7238L2.21438 14.5694ZM9.9306 2.71438L9.77616 1.98045L9.9306 2.71438ZM14.0694 2.71438L14.2238 1.98046L14.0694 2.71438ZM21.1808 8.75728L21.3985 9.47499L21.1808 8.75728ZM2.73861 8.72119L2.04429 8.43761L1.80307 9.0282L2.34732 9.36103L2.73861 8.72119ZM2.81797 8.75692L3.03567 8.03921L2.81797 8.75692ZM20.5681 9.00731C21.0075 10.084 21.25 11.2627 21.25 12.5H22.75C22.75 11.0651 22.4685 9.69407 21.9569 8.44055L20.5681 9.00731ZM21.25 12.5C21.25 13.1573 21.1816 13.7978 21.0517 14.415L22.5195 14.7238C22.6707 14.0057 22.75 13.2617 22.75 12.5H21.25ZM21.0517 14.415C20.3002 17.9862 17.4862 20.8002 13.915 21.5517L14.2238 23.0195C18.377 22.1456 21.6456 18.877 22.5195 14.7238L21.0517 14.415ZM13.915 21.5517C13.2978 21.6816 12.6573 21.75 12 21.75V23.25C12.7617 23.25 13.5057 23.1707 14.2238 23.0195L13.915 21.5517ZM12 21.75C11.3427 21.75 10.7022 21.6816 10.085 21.5517L9.77616 23.0195C10.4943 23.1707 11.2383 23.25 12 23.25V21.75ZM2.75 12.5C2.75 11.2618 2.99289 10.0821 3.43293 9.00478L2.04429 8.43761C1.53198 9.69193 1.25 11.064 1.25 12.5H2.75ZM10.085 21.5517C6.51382 20.8002 3.69976 17.9862 2.94831 14.415L1.48045 14.7238C2.35435 18.877 5.62305 22.1456 9.77616 23.0195L10.085 21.5517ZM2.94831 14.415C2.81844 13.7978 2.75 13.1573 2.75 12.5H1.25C1.25 13.2617 1.32934 14.0057 1.48045 14.7238L2.94831 14.415ZM3.43293 9.00478C4.57824 6.20064 7.06086 4.08466 10.085 3.44831L9.77616 1.98045C6.25736 2.72088 3.37486 5.1799 2.04429 8.43761L3.43293 9.00478ZM10.085 3.44831C10.7022 3.31844 11.3427 3.25 12 3.25V1.75C11.2383 1.75 10.4943 1.82934 9.77616 1.98045L10.085 3.44831ZM12 3.25C12.6573 3.25 13.2978 3.31844 13.915 3.44831L14.2238 1.98046C13.5057 1.82934 12.7617 1.75 12 1.75V3.25ZM13.915 3.44831C16.9401 4.08485 19.4233 6.20192 20.5681 9.00731L21.9569 8.44055C20.6269 5.18138 17.7437 2.72111 14.2238 1.98046L13.915 3.44831ZM13.3549 2.94237C13.6308 3.80712 14.6522 7.13305 15.0708 10.1889L16.557 9.98526C16.1197 6.79348 15.064 3.36407 14.7839 2.4864L13.3549 2.94237ZM15.0708 10.1889C15.183 11.0078 15.25 11.7943 15.25 12.5H16.75C16.75 11.7056 16.6751 10.8476 16.557 9.98526L15.0708 10.1889ZM20.9632 8.03956C19.8657 8.37243 17.8043 8.95704 15.6778 9.34951L15.95 10.8246C18.1556 10.4175 20.2773 9.81505 21.3985 9.47499L20.9632 8.03956ZM15.6778 9.34951C14.3878 9.5876 13.0997 9.75 12 9.75V11.25C13.2292 11.25 14.6179 11.0705 15.95 10.8246L15.6778 9.34951ZM15.25 12.5C15.25 13.5455 15.1032 14.7621 14.8836 15.9899L16.3602 16.2539C16.5874 14.9833 16.75 13.6698 16.75 12.5H15.25ZM14.8836 15.9899C14.4025 18.6811 13.5941 21.308 13.3549 22.0576L14.7839 22.5136C15.0294 21.7443 15.8615 19.0432 16.3602 16.2539L14.8836 15.9899ZM21.5576 13.8549C20.808 14.0941 18.1811 14.9025 15.4899 15.3836L15.7539 16.8602C18.5432 16.3615 21.2443 15.5294 22.0136 15.2839L21.5576 13.8549ZM15.4899 15.3836C14.2621 15.6032 13.0455 15.75 12 15.75V17.25C13.1698 17.25 14.4833 17.0874 15.7539 16.8602L15.4899 15.3836ZM12 15.75C10.9545 15.75 9.73787 15.6032 8.51007 15.3836L8.24606 16.8602C9.51671 17.0874 10.8302 17.25 12 17.25V15.75ZM8.51007 15.3836C5.81886 14.9025 3.19197 14.0941 2.44237 13.8549L1.9864 15.2839C2.75568 15.5294 5.45684 16.3615 8.24606 16.8602L8.51007 15.3836ZM7.25 12.5C7.25 13.6698 7.41258 14.9833 7.63977 16.2539L9.11636 15.9899C8.89683 14.7621 8.75 13.5455 8.75 12.5H7.25ZM7.63977 16.2539C8.13848 19.0432 8.97063 21.7443 9.21609 22.5136L10.6451 22.0576C10.4059 21.308 9.59754 18.6811 9.11636 15.9899L7.63977 16.2539ZM9.21609 2.4864C8.93604 3.36407 7.8803 6.79348 7.44304 9.98526L8.92916 10.1889C9.34779 7.13305 10.3692 3.80712 10.6451 2.94237L9.21609 2.4864ZM7.44304 9.98526C7.32491 10.8476 7.25 11.7056 7.25 12.5H8.75C8.75 11.7943 8.81697 11.0078 8.92916 10.1889L7.44304 9.98526ZM12 9.75C10.9003 9.75 9.61224 9.5876 8.32222 9.34951L8.04998 10.8246C9.38211 11.0705 10.7708 11.25 12 11.25V9.75ZM8.32222 9.34951C6.1949 8.9569 4.13286 8.37202 3.03567 8.03921L2.60027 9.47463C3.72115 9.81462 5.84361 10.4174 8.04998 10.8246L8.32222 9.34951ZM20.9169 8.05831C20.9302 8.05142 20.946 8.04476 20.9632 8.03956L21.3985 9.47499C21.4725 9.45255 21.5421 9.42382 21.6081 9.38955L20.9169 8.05831ZM2.34732 9.36103C2.42503 9.40856 2.50939 9.44706 2.60027 9.47463L3.03567 8.03921C3.07033 8.04972 3.10229 8.06448 3.1299 8.08136L2.34732 9.36103Z" fill="white"/>
</svg>