<svg xmlns="http://www.w3.org/2000/svg" width="66" height="66" viewBox="0 0 66 66" fill="none">
  <path d="M47.4233 30.7991L48.2658 30.2605L47.4233 30.7991C48.0431 31.7687 48.7888 32.6667 49.6505 33.4669L49.7712 33.579C52.3954 36.0161 52.9047 39.9797 50.9818 43.001C49.6196 45.1414 47.2584 46.4375 44.7213 46.4375H44.5479L44.5264 46.4372H44.5262C44.5042 46.4371 44.4822 46.4372 44.4601 46.4375H22.5469C22.5168 46.4371 22.4866 46.437 22.4563 46.4375H22.114C19.1048 46.4375 16.3601 44.7183 15.0468 42.0108L14.7626 41.4248C13.4202 38.6575 14.0482 35.3376 16.3086 33.2518C19.4161 30.3842 20.9487 26.1932 20.4243 21.9974L20.206 20.2516C19.4302 14.0448 24.2698 8.5625 30.5249 8.5625H35.208C38.0159 8.5625 40.5292 9.65933 42.39 11.4341C43.6139 12.6014 45.5524 12.5555 46.7198 11.3316C47.8871 10.1076 47.8412 8.16908 46.6173 7.00174C43.6672 4.1881 39.6579 2.4375 35.208 2.4375H30.5249C20.5857 2.4375 12.8955 11.1488 14.1283 21.0113L14.3466 22.7571C14.6259 24.9915 13.8097 27.2234 12.1548 28.7504C7.91026 32.6673 6.73099 38.9014 9.25166 44.098L9.53588 44.6839C11.6662 49.0758 15.9126 52.0064 20.7031 52.4913L20.9583 52.9288C23.8934 57.9604 28.5365 60.8125 33.5036 60.8125C38.4707 60.8125 43.1139 57.9604 46.0489 52.9288L46.3176 52.4683C50.3279 51.9928 53.951 49.7434 56.1491 46.2896C59.659 40.7745 58.7294 33.5395 53.9392 29.0909L53.2587 29.8237L53.9392 29.0909L53.8185 28.9788C53.3404 28.5348 52.9273 28.0372 52.584 27.5001C51.673 26.0751 49.7792 25.6583 48.3542 26.5693C46.9291 27.4802 46.5123 29.374 47.4233 30.7991ZM33.5036 54.6875C31.8322 54.6875 30.0211 54.0465 28.4007 52.5625H38.6066C36.9861 54.0465 35.175 54.6875 33.5036 54.6875ZM47.254 25.75C50.8438 25.75 53.754 22.8398 53.754 19.25C53.754 15.6601 50.8438 12.75 47.254 12.75C43.6641 12.75 40.754 15.6601 40.754 19.25C40.754 22.8398 43.6641 25.75 47.254 25.75Z" fill="#00C28C" stroke="#050A08" stroke-width="2"/>
</svg>