<svg xmlns="http://www.w3.org/2000/svg" width="20" height="20" viewBox="0 0 20 20" fill="none">
  <path fill-rule="evenodd" clip-rule="evenodd" d="M9.9993 6.87505C8.27341 6.87505 6.8743 8.27416 6.8743 10.0001C6.8743 11.7259 8.27341 13.1251 9.9993 13.1251C11.7252 13.1251 13.1243 11.7259 13.1243 10.0001C13.1243 8.27416 11.7252 6.87505 9.9993 6.87505ZM8.1243 10.0001C8.1243 8.96452 8.96377 8.12505 9.9993 8.12505C11.0348 8.12505 11.8743 8.96452 11.8743 10.0001C11.8743 11.0356 11.0348 11.8751 9.9993 11.8751C8.96377 11.8751 8.1243 11.0356 8.1243 10.0001Z" fill="#00C28C"/>
  <path fill-rule="evenodd" clip-rule="evenodd" d="M12.8449 2.69362C12.0279 -0.169196 7.97072 -0.169195 7.15371 2.69362C6.90057 3.58063 5.98928 4.10676 5.09454 3.88248C2.20677 3.15862 0.178182 6.67224 2.24895 8.8112C2.89055 9.47392 2.89055 10.5262 2.24895 11.1889C0.178182 13.3279 2.20677 16.8415 5.09454 16.1176C5.98928 15.8934 6.90057 16.4195 7.15371 17.3065C7.97072 20.1693 12.0279 20.1693 12.8449 17.3065C13.098 16.4195 14.0093 15.8934 14.9041 16.1176C17.7918 16.8415 19.8204 13.3279 17.7497 11.1889C17.1081 10.5262 17.1081 9.47392 17.7497 8.8112C19.8204 6.67224 17.7918 3.15862 14.9041 3.88248C14.0093 4.10676 13.098 3.58063 12.8449 2.69362ZM8.35572 3.03666C8.82761 1.38313 11.171 1.38313 11.6429 3.03666C12.0812 4.57236 13.6589 5.48327 15.208 5.09497C16.8759 4.67688 18.0476 6.7063 16.8516 7.94175C15.7408 9.08915 15.7408 10.911 16.8516 12.0584C18.0476 13.2938 16.8759 15.3232 15.208 14.9051C13.6589 14.5168 12.0812 15.4278 11.6429 16.9635C11.171 18.617 8.82761 18.617 8.35572 16.9635C7.91745 15.4278 6.33971 14.5168 4.79062 14.9051C3.12267 15.3232 1.95098 13.2938 3.14703 12.0584C4.25785 10.911 4.25785 9.08915 3.14703 7.94175C1.95098 6.7063 3.12267 4.67688 4.79062 5.09497C6.33971 5.48327 7.91745 4.57236 8.35572 3.03666Z" fill="#00C28C"/>
  <path fill-rule="evenodd" clip-rule="evenodd" d="M9.9993 6.87505C8.27341 6.87505 6.8743 8.27416 6.8743 10.0001C6.8743 11.7259 8.27341 13.1251 9.9993 13.1251C11.7252 13.1251 13.1243 11.7259 13.1243 10.0001C13.1243 8.27416 11.7252 6.87505 9.9993 6.87505ZM8.1243 10.0001C8.1243 8.96452 8.96377 8.12505 9.9993 8.12505C11.0348 8.12505 11.8743 8.96452 11.8743 10.0001C11.8743 11.0356 11.0348 11.8751 9.9993 11.8751C8.96377 11.8751 8.1243 11.0356 8.1243 10.0001Z" stroke="#FFAD0E"/>
  <path fill-rule="evenodd" clip-rule="evenodd" d="M12.8449 2.69362C12.0279 -0.169196 7.97072 -0.169195 7.15371 2.69362C6.90057 3.58063 5.98928 4.10676 5.09454 3.88248C2.20677 3.15862 0.178182 6.67224 2.24895 8.8112C2.89055 9.47392 2.89055 10.5262 2.24895 11.1889C0.178182 13.3279 2.20677 16.8415 5.09454 16.1176C5.98928 15.8934 6.90057 16.4195 7.15371 17.3065C7.97072 20.1693 12.0279 20.1693 12.8449 17.3065C13.098 16.4195 14.0093 15.8934 14.9041 16.1176C17.7918 16.8415 19.8204 13.3279 17.7497 11.1889C17.1081 10.5262 17.1081 9.47392 17.7497 8.8112C19.8204 6.67224 17.7918 3.15862 14.9041 3.88248C14.0093 4.10676 13.098 3.58063 12.8449 2.69362ZM8.35572 3.03666C8.82761 1.38313 11.171 1.38313 11.6429 3.03666C12.0812 4.57236 13.6589 5.48327 15.208 5.09497C16.8759 4.67688 18.0476 6.7063 16.8516 7.94175C15.7408 9.08915 15.7408 10.911 16.8516 12.0584C18.0476 13.2938 16.8759 15.3232 15.208 14.9051C13.6589 14.5168 12.0812 15.4278 11.6429 16.9635C11.171 18.617 8.82761 18.617 8.35572 16.9635C7.91745 15.4278 6.33971 14.5168 4.79062 14.9051C3.12267 15.3232 1.95098 13.2938 3.14703 12.0584C4.25785 10.911 4.25785 9.08915 3.14703 7.94175C1.95098 6.7063 3.12267 4.67688 4.79062 5.09497C6.33971 5.48327 7.91745 4.57236 8.35572 3.03666Z" stroke="#FFAD0E"/>
</svg>