<svg xmlns="http://www.w3.org/2000/svg" width="24" height="25" viewBox="0 0 24 25" fill="none">
  <path d="M8 8.09424C7.58579 8.09424 7.25 8.43003 7.25 8.84424C7.25 9.25845 7.58579 9.59424 8 9.59424H16C16.4142 9.59424 16.75 9.25845 16.75 8.84424C16.75 8.43003 16.4142 8.09424 16 8.09424H8Z" fill="white"/>
  <path d="M10 12.0942C9.58579 12.0942 9.25 12.43 9.25 12.8442C9.25 13.2585 9.58579 13.5942 10 13.5942H14C14.4142 13.5942 14.75 13.2585 14.75 12.8442C14.75 12.43 14.4142 12.0942 14 12.0942H10Z" fill="white"/>
  <path d="M8 16.0942C7.58579 16.0942 7.25 16.43 7.25 16.8442C7.25 17.2585 7.58579 17.5942 8 17.5942H16C16.4142 17.5942 16.75 17.2585 16.75 16.8442C16.75 16.43 16.4142 16.0942 16 16.0942H8Z" fill="white"/>
  <path fill-rule="evenodd" clip-rule="evenodd" d="M16.4635 2.21797C15.3214 2.09422 13.8818 2.09423 12.0452 2.09424H11.9548C10.1182 2.09423 8.67861 2.09422 7.53648 2.21797C6.37094 2.34424 5.42656 2.60656 4.62024 3.19239C4.13209 3.54705 3.70281 3.97633 3.34815 4.46447C2.76232 5.2708 2.50001 6.21518 2.37373 7.38071C2.24999 8.52285 2.24999 9.96245 2.25 11.799V13.8895C2.24999 15.726 2.24999 17.1656 2.37373 18.3078C2.50001 19.4733 2.76232 20.4177 3.34815 21.224C3.70281 21.7121 4.13209 22.1414 4.62024 22.4961C5.42656 23.0819 6.37094 23.3442 7.53648 23.4705C8.67859 23.5943 10.1182 23.5942 11.9547 23.5942H12.0453C13.8818 23.5942 15.3214 23.5943 16.4635 23.4705C17.6291 23.3442 18.5734 23.0819 19.3798 22.4961C19.8679 22.1414 20.2972 21.7121 20.6518 21.224C21.2377 20.4177 21.5 19.4733 21.6263 18.3078C21.75 17.1656 21.75 15.7261 21.75 13.8896V11.799C21.75 9.96248 21.75 8.52283 21.6263 7.38071C21.5 6.21518 21.2377 5.2708 20.6518 4.46447C20.2972 3.97633 19.8679 3.54705 19.3798 3.19239C18.5734 2.60656 17.6291 2.34424 16.4635 2.21797ZM5.50191 4.40592C6.00992 4.03683 6.66013 3.82169 7.69804 3.70924C8.74999 3.59527 10.1084 3.59424 12 3.59424C13.8916 3.59424 15.25 3.59527 16.302 3.70924C17.3399 3.82169 17.9901 4.03683 18.4981 4.40592C18.8589 4.66806 19.1762 4.98535 19.4383 5.34615C19.8074 5.85416 20.0225 6.50437 20.135 7.54228C20.249 8.59423 20.25 9.95267 20.25 11.8442V13.8442C20.25 15.7358 20.249 17.0942 20.135 18.1462C20.0225 19.1841 19.8074 19.8343 19.4383 20.3423C19.1762 20.7031 18.8589 21.0204 18.4981 21.2826C17.9901 21.6516 17.3399 21.8668 16.302 21.9792C15.25 22.0932 13.8916 22.0942 12 22.0942C10.1084 22.0942 8.74999 22.0932 7.69804 21.9792C6.66013 21.8668 6.00992 21.6516 5.50191 21.2826C5.14111 21.0204 4.82382 20.7031 4.56168 20.3423C4.19259 19.8343 3.97745 19.1841 3.865 18.1462C3.75103 17.0942 3.75 15.7358 3.75 13.8442V11.8442C3.75 9.95267 3.75103 8.59423 3.865 7.54228C3.97745 6.50437 4.19259 5.85416 4.56168 5.34615C4.82382 4.98535 5.14111 4.66805 5.50191 4.40592Z" fill="white"/>
  <path d="M8 8.09424C7.58579 8.09424 7.25 8.43003 7.25 8.84424C7.25 9.25845 7.58579 9.59424 8 9.59424H16C16.4142 9.59424 16.75 9.25845 16.75 8.84424C16.75 8.43003 16.4142 8.09424 16 8.09424H8Z" stroke="white"/>
  <path d="M10 12.0942C9.58579 12.0942 9.25 12.43 9.25 12.8442C9.25 13.2585 9.58579 13.5942 10 13.5942H14C14.4142 13.5942 14.75 13.2585 14.75 12.8442C14.75 12.43 14.4142 12.0942 14 12.0942H10Z" stroke="white"/>
  <path d="M8 16.0942C7.58579 16.0942 7.25 16.43 7.25 16.8442C7.25 17.2585 7.58579 17.5942 8 17.5942H16C16.4142 17.5942 16.75 17.2585 16.75 16.8442C16.75 16.43 16.4142 16.0942 16 16.0942H8Z" stroke="white"/>
  <path fill-rule="evenodd" clip-rule="evenodd" d="M16.4635 2.21797C15.3214 2.09422 13.8818 2.09423 12.0452 2.09424H11.9548C10.1182 2.09423 8.67861 2.09422 7.53648 2.21797C6.37094 2.34424 5.42656 2.60656 4.62024 3.19239C4.13209 3.54705 3.70281 3.97633 3.34815 4.46447C2.76232 5.2708 2.50001 6.21518 2.37373 7.38071C2.24999 8.52285 2.24999 9.96245 2.25 11.799V13.8895C2.24999 15.726 2.24999 17.1656 2.37373 18.3078C2.50001 19.4733 2.76232 20.4177 3.34815 21.224C3.70281 21.7121 4.13209 22.1414 4.62024 22.4961C5.42656 23.0819 6.37094 23.3442 7.53648 23.4705C8.67859 23.5943 10.1182 23.5942 11.9547 23.5942H12.0453C13.8818 23.5942 15.3214 23.5943 16.4635 23.4705C17.6291 23.3442 18.5734 23.0819 19.3798 22.4961C19.8679 22.1414 20.2972 21.7121 20.6518 21.224C21.2377 20.4177 21.5 19.4733 21.6263 18.3078C21.75 17.1656 21.75 15.7261 21.75 13.8896V11.799C21.75 9.96248 21.75 8.52283 21.6263 7.38071C21.5 6.21518 21.2377 5.2708 20.6518 4.46447C20.2972 3.97633 19.8679 3.54705 19.3798 3.19239C18.5734 2.60656 17.6291 2.34424 16.4635 2.21797ZM5.50191 4.40592C6.00992 4.03683 6.66013 3.82169 7.69804 3.70924C8.74999 3.59527 10.1084 3.59424 12 3.59424C13.8916 3.59424 15.25 3.59527 16.302 3.70924C17.3399 3.82169 17.9901 4.03683 18.4981 4.40592C18.8589 4.66806 19.1762 4.98535 19.4383 5.34615C19.8074 5.85416 20.0225 6.50437 20.135 7.54228C20.249 8.59423 20.25 9.95267 20.25 11.8442V13.8442C20.25 15.7358 20.249 17.0942 20.135 18.1462C20.0225 19.1841 19.8074 19.8343 19.4383 20.3423C19.1762 20.7031 18.8589 21.0204 18.4981 21.2826C17.9901 21.6516 17.3399 21.8668 16.302 21.9792C15.25 22.0932 13.8916 22.0942 12 22.0942C10.1084 22.0942 8.74999 22.0932 7.69804 21.9792C6.66013 21.8668 6.00992 21.6516 5.50191 21.2826C5.14111 21.0204 4.82382 20.7031 4.56168 20.3423C4.19259 19.8343 3.97745 19.1841 3.865 18.1462C3.75103 17.0942 3.75 15.7358 3.75 13.8442V11.8442C3.75 9.95267 3.75103 8.59423 3.865 7.54228C3.97745 6.50437 4.19259 5.85416 4.56168 5.34615C4.82382 4.98535 5.14111 4.66805 5.50191 4.40592Z" stroke="white"/>
</svg>