<svg xmlns="http://www.w3.org/2000/svg" width="21" height="20" viewBox="0 0 21 20" fill="none">
  <path fill-rule="evenodd" clip-rule="evenodd" d="M10.2498 6.87492C8.52395 6.87492 7.12484 8.27403 7.12484 9.99992C7.12484 11.7258 8.52395 13.1249 10.2498 13.1249C11.9757 13.1249 13.3748 11.7258 13.3748 9.99992C13.3748 8.27403 11.9757 6.87492 10.2498 6.87492ZM8.37484 9.99992C8.37484 8.96438 9.21431 8.12492 10.2498 8.12492C11.2854 8.12492 12.1248 8.96438 12.1248 9.99992C12.1248 11.0355 11.2854 11.8749 10.2498 11.8749C9.21431 11.8749 8.37484 11.0355 8.37484 9.99992Z" fill="white"/>
  <path fill-rule="evenodd" clip-rule="evenodd" d="M10.2498 2.70825C8.46571 2.70825 6.85255 3.59075 5.54295 4.66301C4.2262 5.74114 3.14952 7.06546 2.42602 8.07326L2.36635 8.15624C1.9308 8.76145 1.57227 9.25963 1.57227 9.99992C1.57227 10.7402 1.9308 11.2384 2.36635 11.8436L2.42602 11.9266C3.14952 12.9344 4.2262 14.2587 5.54295 15.3368C6.85255 16.4091 8.46571 17.2916 10.2498 17.2916C12.034 17.2916 13.6471 16.4091 14.9567 15.3368C16.2735 14.2587 17.3502 12.9344 18.0737 11.9266L18.1333 11.8436C18.5689 11.2384 18.9274 10.7402 18.9274 9.99992C18.9274 9.25963 18.5689 8.76145 18.1333 8.15625L18.0737 8.07326C17.3502 7.06546 16.2735 5.74114 14.9567 4.66301C13.6471 3.59075 12.034 2.70825 10.2498 2.70825ZM3.44145 8.80224C4.1325 7.83963 5.13607 6.6117 6.33484 5.63018C7.54076 4.6428 8.87837 3.95825 10.2498 3.95825C11.6213 3.95825 12.9589 4.6428 14.1648 5.63018C15.3636 6.6117 16.3672 7.83963 17.0582 8.80224C17.5782 9.52653 17.6774 9.70115 17.6774 9.99992C17.6774 10.2987 17.5782 10.4733 17.0582 11.1976C16.3672 12.1602 15.3636 13.3881 14.1648 14.3697C12.9589 15.357 11.6213 16.0416 10.2498 16.0416C8.87837 16.0416 7.54076 15.357 6.33484 14.3697C5.13608 13.3881 4.1325 12.1602 3.44145 11.1976C2.92148 10.4733 2.82227 10.2987 2.82227 9.99992C2.82227 9.70115 2.92148 9.52653 3.44145 8.80224Z" fill="white"/>
  <path fill-rule="evenodd" clip-rule="evenodd" d="M10.2498 6.87492C8.52395 6.87492 7.12484 8.27403 7.12484 9.99992C7.12484 11.7258 8.52395 13.1249 10.2498 13.1249C11.9757 13.1249 13.3748 11.7258 13.3748 9.99992C13.3748 8.27403 11.9757 6.87492 10.2498 6.87492ZM8.37484 9.99992C8.37484 8.96438 9.21431 8.12492 10.2498 8.12492C11.2854 8.12492 12.1248 8.96438 12.1248 9.99992C12.1248 11.0355 11.2854 11.8749 10.2498 11.8749C9.21431 11.8749 8.37484 11.0355 8.37484 9.99992Z" stroke="white"/>
  <path fill-rule="evenodd" clip-rule="evenodd" d="M10.2498 2.70825C8.46571 2.70825 6.85255 3.59075 5.54295 4.66301C4.2262 5.74114 3.14952 7.06546 2.42602 8.07326L2.36635 8.15624C1.9308 8.76145 1.57227 9.25963 1.57227 9.99992C1.57227 10.7402 1.9308 11.2384 2.36635 11.8436L2.42602 11.9266C3.14952 12.9344 4.2262 14.2587 5.54295 15.3368C6.85255 16.4091 8.46571 17.2916 10.2498 17.2916C12.034 17.2916 13.6471 16.4091 14.9567 15.3368C16.2735 14.2587 17.3502 12.9344 18.0737 11.9266L18.1333 11.8436C18.5689 11.2384 18.9274 10.7402 18.9274 9.99992C18.9274 9.25963 18.5689 8.76145 18.1333 8.15625L18.0737 8.07326C17.3502 7.06546 16.2735 5.74114 14.9567 4.66301C13.6471 3.59075 12.034 2.70825 10.2498 2.70825ZM3.44145 8.80224C4.1325 7.83963 5.13607 6.6117 6.33484 5.63018C7.54076 4.6428 8.87837 3.95825 10.2498 3.95825C11.6213 3.95825 12.9589 4.6428 14.1648 5.63018C15.3636 6.6117 16.3672 7.83963 17.0582 8.80224C17.5782 9.52653 17.6774 9.70115 17.6774 9.99992C17.6774 10.2987 17.5782 10.4733 17.0582 11.1976C16.3672 12.1602 15.3636 13.3881 14.1648 14.3697C12.9589 15.357 11.6213 16.0416 10.2498 16.0416C8.87837 16.0416 7.54076 15.357 6.33484 14.3697C5.13608 13.3881 4.1325 12.1602 3.44145 11.1976C2.92148 10.4733 2.82227 10.2987 2.82227 9.99992C2.82227 9.70115 2.92148 9.52653 3.44145 8.80224Z" stroke="white"/>
</svg>